<svg width="91" height="90" viewBox="0 0 91 90" fill="none" xmlns="http://www.w3.org/2000/svg">
<circle cx="45.6313" cy="44.9963" r="44.8943" fill="#FFBC00"/>
<path d="M54.6868 69.0839C53.2692 69.0787 51.8901 68.6223 50.7493 67.7808L46.6993 64.8183C46.1968 64.4483 45.589 64.2486 44.9649 64.2486C44.3408 64.2486 43.7331 64.4483 43.2306 64.8183L39.1806 67.7808C38.1332 68.5457 36.8863 68.9898 35.5913 69.0593C34.2963 69.1288 33.0089 68.8205 31.8858 68.1721C30.7627 67.5236 29.8521 66.5629 29.2648 65.4066C28.6775 64.2504 28.4387 62.9484 28.5774 61.6589L29.1212 56.6714C29.191 56.0516 29.0602 55.4258 28.748 54.8858C28.4359 54.3458 27.9588 53.9202 27.3868 53.6714L22.8024 51.6464C21.613 51.125 20.6012 50.2683 19.8908 49.1811C19.1803 48.0939 18.802 46.8233 18.802 45.5246C18.802 44.2258 19.1803 42.9552 19.8908 41.868C20.6012 40.7808 21.613 39.9242 22.8024 39.4027L27.3868 37.3777C27.9588 37.1289 28.4359 36.7033 28.748 36.1633C29.0602 35.6233 29.191 34.9975 29.1212 34.3777L28.5774 29.3902C28.4387 28.1008 28.6775 26.7988 29.2648 25.6425C29.8521 24.4863 30.7627 23.5255 31.8858 22.8771C33.0089 22.2286 34.2963 21.9204 35.5913 21.9898C36.8863 22.0593 38.1332 22.5035 39.1806 23.2683L43.2306 26.2308C43.7331 26.6009 44.3408 26.8005 44.9649 26.8005C45.589 26.8005 46.1968 26.6009 46.6993 26.2308L50.7493 23.2683C51.4705 22.7345 52.2936 22.3543 53.1675 22.1511C54.0415 21.9479 54.9478 21.9261 55.8306 22.0871C56.7323 22.2507 57.5917 22.595 58.3569 23.0993C59.1222 23.6035 59.7776 24.2574 60.2837 25.0214C60.424 25.227 60.522 25.4583 60.572 25.7021C60.6219 25.9459 60.6229 26.1972 60.5748 26.4413C60.5266 26.6855 60.4304 26.9176 60.2916 27.1242C60.1529 27.3307 59.9744 27.5076 59.7666 27.6445C59.5587 27.7814 59.3258 27.8755 59.0812 27.9215C58.8366 27.9674 58.5854 27.9642 58.342 27.912C58.0987 27.8598 57.8682 27.7597 57.664 27.6176C57.4598 27.4754 57.2859 27.294 57.1524 27.0839C56.9262 26.7439 56.6334 26.4532 56.2919 26.2292C55.9503 26.0053 55.567 25.8528 55.1649 25.7808C54.7778 25.7094 54.38 25.7201 53.9973 25.8122C53.6145 25.9042 53.2554 26.0756 52.9431 26.3152L48.8931 29.2777C47.7468 30.1178 46.3627 30.5708 44.9415 30.5708C43.5203 30.5708 42.1362 30.1178 40.9899 29.2777L36.9493 26.3152C36.4901 25.9665 35.9384 25.7609 35.363 25.7239C34.7876 25.6869 34.2141 25.8203 33.714 26.1073C33.214 26.3943 32.8096 26.8223 32.5513 27.3378C32.293 27.8533 32.1923 28.4334 32.2618 29.0058L32.8056 33.9839C32.969 35.3925 32.679 36.8166 31.9776 38.049C31.2762 39.2815 30.2001 40.2582 28.9056 40.8371L24.3118 42.8621C23.7911 43.0932 23.3487 43.4704 23.0381 43.948C22.7276 44.4256 22.5623 44.983 22.5623 45.5527C22.5623 46.1224 22.7276 46.6798 23.0381 47.1574C23.3487 47.635 23.7911 48.0122 24.3118 48.2433L28.9056 50.2121C30.2071 50.783 31.2921 51.755 32.0022 52.9862C32.7122 54.2174 33.0101 55.6433 32.8524 57.0558L32.3087 62.0339C32.2392 62.6063 32.3399 63.1865 32.5982 63.702C32.8564 64.2175 33.2608 64.6454 33.7609 64.9325C34.2609 65.2195 34.8345 65.3529 35.4099 65.3159C35.9852 65.2789 36.537 65.0732 36.9962 64.7246L41.0368 61.7621C42.183 60.9219 43.5672 60.469 44.9884 60.469C46.4095 60.469 47.7937 60.9219 48.9399 61.7621L52.9899 64.7246C53.4491 65.0732 54.0009 65.2789 54.5763 65.3159C55.1517 65.3529 55.7252 65.2195 56.2252 64.9325C56.7253 64.6454 57.1297 64.2175 57.388 63.702C57.6462 63.1865 57.7469 62.6063 57.6774 62.0339L57.1337 57.0558C56.9701 55.6496 57.2592 54.2279 57.9588 52.9971C58.6585 51.7664 59.7323 50.7908 61.0243 50.2121L65.6181 48.1871C66.1388 47.956 66.5812 47.5787 66.8917 47.1011C67.2023 46.6236 67.3676 46.0661 67.3676 45.4964C67.3676 44.9268 67.2023 44.3693 66.8917 43.8917C66.5812 43.4142 66.1388 43.0369 65.6181 42.8058L63.1243 41.7746C62.8922 41.6801 62.6814 41.54 62.5044 41.3626C62.3273 41.1852 62.1876 40.9742 62.0936 40.7419C61.9995 40.5096 61.9529 40.2609 61.9566 40.0103C61.9603 39.7597 62.0142 39.5124 62.1151 39.283C62.216 39.0536 62.3619 38.8468 62.5441 38.6747C62.7263 38.5027 62.9412 38.3689 63.176 38.2813C63.4108 38.1937 63.6607 38.1541 63.9111 38.1647C64.1615 38.1754 64.4072 38.2361 64.6337 38.3433L67.1274 39.4402C68.3169 39.9617 69.3287 40.8183 70.0391 41.9055C70.7495 42.9927 71.1279 44.2633 71.1279 45.5621C71.1279 46.8608 70.7495 48.1314 70.0391 49.2186C69.3287 50.3058 68.3169 51.1625 67.1274 51.6839L62.5431 53.7089C61.9712 53.9586 61.4938 54.3841 61.1802 54.9236C60.8667 55.4631 60.7332 56.0885 60.7993 56.7089L61.3431 61.6964C61.5004 62.9872 61.2708 64.2957 60.6832 65.4557C60.0957 66.6158 59.1768 67.5752 58.0431 68.2121C57.0198 68.7912 55.8626 69.0919 54.6868 69.0839Z" fill="white"/>
<path d="M45.1806 52.0871C44.9331 52.0873 44.6881 52.0385 44.4597 51.9436C44.2312 51.8486 44.0237 51.7094 43.8493 51.5339L35.7774 43.4621C35.5763 43.2949 35.4123 43.0874 35.2961 42.8531C35.1798 42.6187 35.1139 42.3626 35.1026 42.1013C35.0913 41.8399 35.1348 41.5791 35.2303 41.3356C35.3257 41.092 35.4711 40.8712 35.6571 40.6872C35.8431 40.5032 36.0655 40.3601 36.31 40.2672C36.5546 40.1744 36.8158 40.1337 37.077 40.1478C37.3383 40.1619 37.5936 40.2305 37.8267 40.3492C38.0598 40.4679 38.2655 40.6341 38.4306 40.8371L45.1806 47.5871L69.0306 23.6996C69.3878 23.377 69.8554 23.2042 70.3366 23.2169C70.8177 23.2296 71.2756 23.4268 71.6153 23.7677C71.955 24.1087 72.1506 24.5672 72.1616 25.0484C72.1726 25.5296 71.9981 25.9966 71.6743 26.3527L46.5024 51.5246C46.3299 51.7006 46.1243 51.8409 45.8975 51.9374C45.6707 52.034 45.4271 52.0848 45.1806 52.0871Z" fill="white"/>
</svg>
