<svg width="91" height="91" viewBox="0 0 91 91" fill="none" xmlns="http://www.w3.org/2000/svg">
<circle cx="45.6313" cy="45.7849" r="44.8943" fill="#FFBC00"/>
<path d="M65.4928 57.7679H59.8693V52.1443C59.8693 51.6472 59.6718 51.1704 59.3202 50.8189C58.9687 50.4673 58.4919 50.2698 57.9948 50.2698C57.4976 50.2698 57.0208 50.4673 56.6693 50.8189C56.3177 51.1704 56.1202 51.6472 56.1202 52.1443V57.7679H50.4967C49.9996 57.7679 49.5228 57.9654 49.1712 58.3169C48.8197 58.6684 48.6222 59.1452 48.6222 59.6424C48.6222 60.1395 48.8197 60.6163 49.1712 60.9679C49.5228 61.3194 49.9996 61.5169 50.4967 61.5169H56.1202V67.1404C56.1202 67.6376 56.3177 68.1144 56.6693 68.4659C57.0208 68.8174 57.4976 69.0149 57.9948 69.0149C58.4919 69.0149 58.9687 68.8174 59.3202 68.4659C59.6718 68.1144 59.8693 67.6376 59.8693 67.1404V61.5169H65.4928C65.9899 61.5169 66.4667 61.3194 66.8183 60.9679C67.1698 60.6163 67.3673 60.1395 67.3673 59.6424C67.3673 59.1452 67.1698 58.6684 66.8183 58.3169C66.4667 57.9654 65.9899 57.7679 65.4928 57.7679ZM42.9987 37.1483V45.7448L37.9244 50.8191C37.7454 50.992 37.6026 51.1988 37.5043 51.4275C37.4061 51.6562 37.3544 51.9022 37.3522 52.1511C37.35 52.4 37.3975 52.6468 37.4917 52.8772C37.586 53.1076 37.7252 53.3169 37.9012 53.4929C38.0772 53.6689 38.2865 53.8081 38.5168 53.9023C38.7472 53.9966 38.994 54.044 39.2429 54.0418C39.4918 54.0397 39.7378 53.9879 39.9665 53.8897C40.1952 53.7915 40.402 53.6487 40.5749 53.4696L46.1985 47.8461C46.55 47.4946 46.7476 47.0179 46.7477 46.5208V37.1483C46.7477 36.6511 46.5502 36.1743 46.1987 35.8228C45.8471 35.4713 45.3703 35.2738 44.8732 35.2738C44.376 35.2738 43.8993 35.4713 43.5477 35.8228C43.1962 36.1743 42.9987 36.6511 42.9987 37.1483ZM49.9869 64.5611C46.0006 65.6846 41.7544 65.4542 37.9131 63.9061C34.0718 62.358 30.8524 59.5796 28.7592 56.006C26.666 52.4324 25.8171 48.2654 26.3455 44.1578C26.874 40.0501 28.7499 36.2337 31.6794 33.3063C34.609 30.3788 38.4267 28.5057 42.5348 27.9802C46.6428 27.4548 50.8092 28.3067 54.3812 30.4025C57.9533 32.4983 60.7294 35.7197 62.2747 39.5621C63.82 43.4045 64.0473 47.6509 62.921 51.6364C62.8447 51.876 62.8175 52.1284 62.8409 52.3788C62.8642 52.6291 62.9377 52.8722 63.057 53.0936C63.1762 53.3149 63.3388 53.51 63.535 53.6673C63.7312 53.8245 63.957 53.9407 64.199 54.0089C64.441 54.0771 64.6943 54.0959 64.9437 54.0641C65.1931 54.0324 65.4336 53.9509 65.6509 53.8243C65.8681 53.6977 66.0577 53.5287 66.2083 53.3274C66.3589 53.1261 66.4675 52.8965 66.5275 52.6523C67.8798 47.8663 67.6063 42.7669 65.7499 38.1529C63.8935 33.539 60.559 29.6712 56.2688 27.1554C51.9786 24.6396 46.975 23.6181 42.042 24.2507C37.109 24.8834 32.5252 27.1345 29.0086 30.6514C25.4921 34.1684 23.2416 38.7525 22.6095 43.6856C21.9774 48.6187 22.9996 53.6221 25.5159 57.912C28.0322 62.2019 31.9004 65.5359 36.5146 67.3918C41.1288 69.2477 46.2282 69.5205 51.0141 68.1677C51.2562 68.1054 51.4833 67.9954 51.6823 67.8441C51.8812 67.6928 52.0478 67.5032 52.1724 67.2865C52.297 67.0698 52.377 66.8304 52.4077 66.5824C52.4384 66.3344 52.4192 66.0827 52.3512 65.8422C52.2832 65.6017 52.1677 65.3772 52.0117 65.1819C51.8557 64.9867 51.6622 64.8246 51.4426 64.7052C51.223 64.5859 50.9817 64.5116 50.733 64.4869C50.4843 64.4621 50.2332 64.4874 49.9944 64.5611H49.9869Z" fill="white"/>
</svg>
