<svg width="91" height="91" viewBox="0 0 91 91" fill="none" xmlns="http://www.w3.org/2000/svg">
<circle cx="45.6313" cy="45.2078" r="44.8943" fill="#FFBC00"/>
<path d="M46.917 57.5941V60.2343C46.917 60.6608 46.7474 61.0695 46.4459 61.3709C46.1442 61.6726 45.7353 61.8421 45.3088 61.8421C44.8823 61.8421 44.4734 61.6726 44.1719 61.3709C43.8702 61.0695 43.701 60.6608 43.701 60.2343V57.5218C42.6366 57.3464 41.6186 56.9583 40.7073 56.3811C39.7961 55.8039 39.0104 55.0493 38.3969 54.1621C38.1509 53.8933 38.014 53.5421 38.0129 53.1778C38.0127 52.97 38.0546 52.7643 38.1363 52.573C38.2179 52.382 38.3376 52.2092 38.488 52.0657C38.6383 51.9221 38.8162 51.8103 39.0109 51.7376C39.2057 51.6646 39.4132 51.6322 39.6209 51.6421C39.827 51.6409 40.0307 51.6855 40.2174 51.7726C40.4044 51.8597 40.5695 51.9872 40.701 52.1461C41.4686 53.1488 42.5106 53.9072 43.701 54.3298V48.2343C40.509 46.9623 38.9009 45.1141 38.9009 42.6901C38.949 41.3924 39.459 40.1545 40.3391 39.1996C41.2192 38.2448 42.4115 37.6358 43.701 37.4823V34.818C43.701 34.3916 43.8702 33.9823 44.1719 33.6807C44.4734 33.3791 44.8823 33.2102 45.3088 33.2102C45.7353 33.2102 46.1442 33.3791 46.4459 33.6807C46.7474 33.9823 46.917 34.3916 46.917 34.818V37.4583C47.8139 37.5965 48.6736 37.9139 49.4447 38.3922C50.2158 38.8706 50.8828 39.4999 51.405 40.242C51.6167 40.5197 51.7418 40.8534 51.7648 41.2018C51.7713 41.4075 51.7365 41.6127 51.6621 41.8047C51.5877 41.9967 51.4756 42.1714 51.3323 42.3193C51.189 42.4669 51.0174 42.5847 50.8281 42.6649C50.6385 42.745 50.4347 42.7863 50.2288 42.7861C50.0142 42.7834 49.8026 42.7349 49.6082 42.6437C49.4135 42.5528 49.2407 42.4213 49.101 42.2583C48.5286 41.5433 47.7743 40.9957 46.917 40.6739V46.0738L47.517 46.3141C50.565 47.4901 52.461 49.2178 52.461 51.9778C52.4198 53.4418 51.8243 54.836 50.7954 55.8783C49.7666 56.9206 48.3803 57.5338 46.917 57.5941ZM43.701 44.6823V40.794C43.3137 40.9345 42.9801 41.1932 42.7475 41.5335C42.5152 41.8736 42.3954 42.2782 42.405 42.6901C42.4247 43.0981 42.5558 43.4929 42.7845 43.8315C43.013 44.1701 43.33 44.4394 43.701 44.6103V44.6823ZM48.981 52.0498C48.981 50.8738 48.165 50.1778 46.917 49.6498V54.4498C47.5062 54.367 48.0436 54.0682 48.425 53.6113C48.8063 53.1545 49.0046 52.5723 48.981 51.9778V52.0498Z" fill="white"/>
<path d="M46.2206 26.3938H30.4286C27.8825 26.3938 25.4409 27.4054 23.6405 29.2057C21.8402 31.0061 20.8286 33.4477 20.8286 35.9938V59.9939C20.8286 62.5398 21.8402 64.9816 23.6405 66.7818C25.4409 68.5823 27.8825 69.5939 30.4286 69.5939H59.2286C61.7748 69.5939 64.2165 68.5823 66.0168 66.7818C67.8173 64.9816 68.8286 62.5398 68.8286 59.9939V45.4256" stroke="white" stroke-width="3.6" stroke-linecap="round" stroke-linejoin="round"/>
<path d="M55.2441 37.4578L68.8281 23.8738" stroke="white" stroke-width="3.6" stroke-linecap="round" stroke-linejoin="round"/>
<path d="M57.9819 23.8738H68.8299V34.7458" stroke="white" stroke-width="3.6" stroke-linecap="round" stroke-linejoin="round"/>
</svg>
