<svg width="57" height="57" viewBox="0 0 57 57" fill="none" xmlns="http://www.w3.org/2000/svg">
<circle cx="28.0435" cy="28.5537" r="28.0469" fill="white"/>
<path d="M44.3159 25.6371C44.2664 25.5257 44.1921 25.4143 44.1055 25.3277C44.0807 25.2906 44.0436 25.2534 44.0065 25.2287C43.9322 25.1668 43.8456 25.1049 43.759 25.0554C43.5857 24.9688 43.3877 24.9193 43.1897 24.9193H13.4873C13.2769 24.9193 13.0789 24.9688 12.9056 25.0554C12.7695 25.1421 12.6333 25.2411 12.5343 25.3648C12.4601 25.4515 12.4106 25.5381 12.3735 25.6371C12.2621 25.8599 12.2249 26.1198 12.2744 26.3797L15.6036 44.164C15.9377 45.9213 17.4724 47.1961 19.2545 47.1961H37.4225C39.2046 47.1961 40.7392 45.9213 41.0734 44.164L44.4025 26.4044C44.4149 26.3425 44.4273 26.2683 44.4273 26.194V26.1198C44.4149 25.9465 44.3778 25.7856 44.3159 25.6371Z" fill="#75002A"/>
<path d="M36.9645 17.5308C36.7789 17.5061 36.5809 17.4937 36.3829 17.4937C36.1725 17.4937 35.9745 17.5061 35.7641 17.5184C35.1948 17.568 34.6379 17.6917 34.1057 17.8897C33.9324 17.9516 33.7715 18.0135 33.6107 18.0877C33.5116 18.1249 33.4126 18.1744 33.326 18.2239C33.2394 18.2734 33.1404 18.3229 33.0537 18.3724C32.93 18.4343 32.8062 18.5085 32.6825 18.5828C32.5463 18.6694 32.4226 18.756 32.2988 18.8551C32.175 18.9541 32.0513 19.0531 31.9399 19.1521C31.8533 19.2263 31.7666 19.2882 31.7048 19.3625C31.68 19.3748 31.6552 19.3996 31.6429 19.412C31.5067 19.5481 31.383 19.6719 31.2716 19.808C31.185 19.907 31.0983 20.0184 31.0117 20.1298C30.9127 20.2535 30.8261 20.3773 30.7394 20.5011C30.727 20.5134 30.7147 20.5258 30.7147 20.5382C30.628 20.662 30.5538 20.7981 30.4795 20.9218C30.4176 21.0332 30.3558 21.1446 30.2939 21.256C30.2196 21.3921 30.1578 21.5406 30.0959 21.6892C30.0835 21.7387 30.0587 21.8005 30.034 21.85C30.0216 21.8872 30.0092 21.9119 29.9969 21.9491C29.9845 21.9738 29.9721 21.9986 29.9721 22.0233C29.9474 22.0976 29.9226 22.1718 29.8979 22.2461C29.7988 22.5555 29.7246 22.8649 29.6751 23.199C29.6503 23.3599 29.6256 23.5208 29.6132 23.6817H43.1649C42.9669 21.4664 41.6922 19.5605 39.8853 18.4838C39.019 17.9392 38.0289 17.6051 36.9645 17.5308Z" fill="#75002A"/>
<path d="M37.3853 16.1447L37.4225 16.318C38.5611 16.4665 39.6378 16.8625 40.5783 17.4442L44.2169 11.9864C44.6005 11.4171 44.4396 10.6498 43.8703 10.2785C43.3011 9.89484 42.5337 10.0557 42.1625 10.625L39.4769 14.6472L40.6278 11.7636C40.8754 11.1324 40.566 10.4146 39.9348 10.1547C39.3036 9.90721 38.5858 10.2042 38.3259 10.8478L36.8532 14.5358C36.9398 14.7462 37.0264 14.9442 37.1007 15.1546C37.2244 15.4764 37.3111 15.7982 37.3853 16.1447Z" fill="#75002A"/>
<path d="M28.2023 22.8278C28.2271 23.001 28.2518 23.1743 28.2766 23.3475C28.2766 23.3723 28.289 23.4094 28.289 23.4342C28.3014 23.5208 28.3014 23.6074 28.3014 23.6817H28.3632C28.4251 22.8896 28.5984 22.1347 28.883 21.4045C28.9325 21.2684 28.9944 21.1322 29.0563 20.9961C29.1553 20.761 29.2791 20.5382 29.4028 20.303C29.4771 20.1669 29.5637 20.0432 29.638 19.9194C29.6875 19.8328 29.7493 19.7461 29.8112 19.6595C29.9226 19.4986 30.0464 19.3377 30.1825 19.1768C30.1949 19.1645 30.2073 19.1397 30.2196 19.1273C30.3186 19.0036 30.43 18.8922 30.529 18.7808C30.6899 18.6075 30.8632 18.4343 31.0488 18.2734C31.3458 18.0135 31.6676 17.766 32.0018 17.5556C32.1379 17.4566 32.2864 17.3699 32.4349 17.2957C32.4844 17.2586 32.5463 17.2338 32.6082 17.1967C32.7691 17.11 32.93 17.0234 33.1032 16.9615C33.2889 16.8749 33.4869 16.8006 33.6849 16.7264C34.4646 16.4417 35.2938 16.2809 36.1601 16.2685C36.2344 16.2561 36.3086 16.2561 36.3829 16.2561C36.519 16.2561 36.6551 16.2561 36.7789 16.2685C36.717 15.9591 36.6304 15.6621 36.519 15.365C35.4052 12.2587 32.4473 10.0681 28.9573 10.0681C25.1455 10.0681 21.9401 12.7413 21.1233 16.3056C22.5836 16.4417 23.9574 16.9739 25.1083 17.865C26.7296 19.0654 27.8311 20.8228 28.2023 22.8278Z" fill="#75002A"/>
<path d="M27.0761 23.6817C27.0514 23.4713 27.0142 23.2609 26.9771 23.0505C26.6677 21.355 25.7395 19.8699 24.3782 18.8551C23.3757 18.0877 22.2 17.6422 20.9376 17.5308C20.7272 17.5061 20.5169 17.4937 20.2941 17.4937C16.7546 17.4937 13.8338 20.2164 13.5244 23.6817H27.0761Z" fill="#75002A"/>
</svg>
