<svg width="57" height="57" viewBox="0 0 57 57" fill="none" xmlns="http://www.w3.org/2000/svg">
<circle cx="28.0435" cy="28.3662" r="28.0469" fill="white"/>
<path d="M39.4726 15.8082L35.0493 17.3751C35.2365 17.8881 35.3474 18.4289 35.3474 18.9905C35.3474 21.5488 33.2744 23.6565 30.6814 23.6565C28.6292 23.6565 26.882 22.3115 26.258 20.4742L10.5405 25.9722H44.513C44.513 22.2491 42.6827 18.7756 39.4726 15.8082ZM29.3363 15.9676C28.2062 16.4806 27.3951 17.6384 27.3951 18.9627C27.3951 20.7722 28.8788 22.249 30.6814 22.249C32.484 22.249 33.9677 20.7653 33.9677 18.9627C33.9677 17.1601 32.5117 15.6764 30.6814 15.6764C29.8217 13.0903 27.1732 10.8509 27.0415 10.74C26.7433 10.4973 26.3135 10.5251 26.0708 10.8232C25.8282 11.1213 25.8559 11.5512 26.154 11.7938C26.9097 12.4109 28.6846 14.1927 29.3363 15.9676ZM10.5405 35.2765H44.513V41.8561H10.5405V35.2765ZM10.5405 27.345H44.513V33.9246H10.5405V27.345Z" fill="#75002A"/>
</svg>
