<svg width="57" height="57" viewBox="0 0 57 57" fill="none" xmlns="http://www.w3.org/2000/svg">
<circle cx="28.0435" cy="28.46" r="28.0469" fill="white"/>
<path d="M44.8561 25.3423C43.6292 24.1015 41.9083 23.3592 40.0493 23.3621C39.4774 23.3614 38.8951 23.451 38.3128 23.5919C38.7306 22.7887 38.9706 21.8783 38.9706 20.9099C38.9692 18.7213 37.7563 16.824 35.9715 15.83C35.0699 12.5481 32.0744 10.1413 28.5098 10.1392C27.1692 10.1384 25.9071 10.4879 24.8072 11.0893C23.9607 10.5687 22.9622 10.2626 21.8953 10.2633C19.2331 10.2655 17.0173 12.1288 16.46 14.6229C14.4234 15.4327 12.9807 17.4092 12.9785 19.7359C12.9785 21.2587 13.5952 22.636 14.5915 23.6338V40.9705C14.5915 44.27 17.2655 46.9439 20.5642 46.9439H30.5986C33.8973 46.9439 36.572 44.27 36.572 40.9705V38.776C36.8584 38.8024 37.1462 38.8178 37.4354 38.8178C39.4075 38.8127 41.4412 38.2268 43.1711 37.0293C44.0337 36.4288 44.8157 35.6674 45.4353 34.7439C46.0557 33.8217 46.508 32.7358 46.7129 31.5347C46.7885 31.0926 46.8259 30.6544 46.8259 30.2241C46.8296 28.3224 46.088 26.5794 44.8561 25.3423ZM36.0764 22.9414H17.9417C17.2633 22.8254 16.6576 22.5097 16.1892 22.042C15.5974 21.4481 15.2347 20.6404 15.234 19.7359C15.2317 18.2021 16.2999 16.9151 17.7281 16.57L18.5202 16.3784L18.5869 15.5656C18.7265 13.863 20.1537 12.5164 21.8953 12.5187C22.7132 12.5194 23.4495 12.8109 24.0332 13.2998L24.6918 13.8534L25.3996 13.3645C26.2865 12.7522 27.3503 12.3954 28.5097 12.3946C31.1719 12.3924 33.3921 14.2962 33.8907 16.8108L34.0059 17.3938L34.5521 17.6281C35.8238 18.1764 36.7166 19.4378 36.7151 20.9099C36.7146 21.6698 36.4773 22.3644 36.0764 22.9414ZM43.0081 30.8987C42.8906 31.5771 42.6505 32.1454 42.3143 32.649C41.8114 33.3994 41.0705 34.0058 40.1976 34.4243C39.3283 34.8428 38.3363 35.0602 37.4355 35.0586C37.1323 35.0594 36.8452 35.0293 36.5721 34.9837V28.8077C36.9649 28.4215 37.3525 28.1101 37.7247 27.8722C38.5912 27.3202 39.3723 27.1227 40.0493 27.1212C40.9208 27.1233 41.6484 27.4508 42.1873 27.9898C42.721 28.5331 43.0631 29.2819 43.0668 30.2239C43.0668 30.4383 43.0485 30.663 43.0081 30.8987Z" fill="#75002A"/>
</svg>
