<svg width="57" height="57" viewBox="0 0 57 57" fill="none" xmlns="http://www.w3.org/2000/svg">
<circle cx="28.0435" cy="28.46" r="28.0469" fill="white"/>
<path d="M22.1397 24.9543C24.0596 24.9543 25.616 24.3317 25.616 23.5637C25.616 22.7958 24.0596 22.1732 22.1397 22.1732C20.2198 22.1732 18.6634 22.7958 18.6634 23.5637C18.6634 24.3317 20.2198 24.9543 22.1397 24.9543Z" fill="#75002A"/>
<path d="M45.2224 16.4721C41.1898 14.8034 35.9059 13.8301 30.2047 13.8301C18.1071 13.8301 8.92969 18.0017 8.92969 23.5637C8.92969 27.7353 11.8498 31.0726 16.5776 32.4631C17.9681 32.8803 19.3586 33.0193 20.8882 33.0193C22.6959 33.0193 24.6426 32.7412 26.4503 32.0459C29.3704 31.0726 32.1514 29.4039 35.0715 27.0401C36.7402 25.6495 38.965 24.8152 41.3289 24.8152H43.1366C45.5005 24.8152 47.3082 23.2856 47.7253 21.1999C48.1425 19.3922 47.1691 17.4454 45.2224 16.4721ZM22.1397 27.7353C18.5243 27.7353 15.8823 25.9276 15.8823 23.5637C15.8823 21.1999 18.5243 19.3922 22.1397 19.3922C25.755 19.3922 28.397 21.1999 28.397 23.5637C28.397 25.9276 25.755 27.7353 22.1397 27.7353Z" fill="#75002A"/>
<path d="M43.1366 27.7353H41.3289C39.6603 27.7353 37.9916 28.2915 36.8792 29.2649C33.681 31.9069 30.4828 33.7146 27.2846 34.827C25.1988 35.5223 22.974 35.9394 20.8882 35.9394C19.2196 35.9394 17.4119 35.6613 15.8823 35.2442C12.9622 34.4098 10.5983 32.8803 8.92969 30.9335V33.2974C8.92969 37.469 11.8498 40.8062 16.5776 42.1968C17.9681 42.6139 19.3586 42.753 20.8882 42.753C22.6959 42.753 24.6426 42.4749 26.4503 41.7796C29.3704 40.8062 32.1514 39.1376 35.0715 36.7737C36.7402 35.3832 38.965 34.5489 41.3289 34.5489H43.1366C45.7786 34.5489 47.4472 32.7412 47.8644 30.7945C47.8644 30.6554 48.0034 30.5164 48.0034 30.3773V25.9276C46.6129 27.1791 44.9443 27.7353 43.1366 27.7353Z" fill="#75002A"/>
</svg>
