<svg width="57" height="57" viewBox="0 0 57 57" fill="none" xmlns="http://www.w3.org/2000/svg">
<circle cx="28.0435" cy="28.3662" r="28.0469" fill="white"/>
<path d="M28.3723 8.50586C24.3652 8.50586 21.2168 11.6543 21.2168 15.6614V41.4213C21.2168 45.4284 24.3652 48.5769 28.3723 48.5769C32.3794 48.5769 35.5279 45.4284 35.5279 41.4213V15.6614C35.5279 11.6543 32.3794 8.50586 28.3723 8.50586ZM29.5172 21.2427C30.6621 22.9601 30.6621 25.3929 29.5172 27.1103C28.9448 27.9689 28.9448 28.9707 29.5172 29.8294C30.6621 31.5467 30.6621 33.9796 29.5172 35.6969C28.9448 36.5556 28.9448 37.5574 29.5172 38.416L30.9483 40.5627C31.3777 41.2782 31.2346 42.1369 30.519 42.5662C30.3759 42.7093 30.0897 42.8525 29.8034 42.8525C29.3741 42.8525 28.9448 42.5662 28.6586 42.28L27.2275 40.1333C26.0826 38.416 26.0826 35.9831 27.2275 34.2658C27.7999 33.4071 27.7999 32.4054 27.2275 31.5467C26.0826 29.8294 26.0826 27.3965 27.2275 25.6792C27.7999 24.8205 27.7999 23.8187 27.2275 22.9601C26.0826 21.2427 26.0826 18.8098 27.2275 17.0925L28.6586 14.9458C29.0879 14.2303 29.9466 14.0872 30.6621 14.5165C31.3777 14.9458 31.5208 15.8045 31.0914 16.5201L29.6603 18.6667C28.9448 19.3823 28.9448 20.5272 29.5172 21.2427Z" fill="#75002A"/>
<path d="M18.3548 41.4214V15.6615C18.3548 14.6597 18.4979 13.801 18.7841 12.9424C15.3495 13.3717 12.6304 16.2339 12.6304 19.8117V37.1281C12.6304 40.7059 15.3495 43.5681 18.7841 44.1405C18.4979 43.2819 18.3548 42.4232 18.3548 41.4214Z" fill="#75002A"/>
<path d="M37.9609 12.9424C38.2472 13.801 38.3903 14.6597 38.3903 15.6615V41.4214C38.3903 42.4232 38.2472 43.2819 37.9609 44.1405C41.3956 43.7112 44.1147 40.7059 44.1147 37.1281V19.8117C44.1147 16.2339 41.3956 13.3717 37.9609 12.9424Z" fill="#75002A"/>
</svg>
