<svg width="57" height="57" viewBox="0 0 57 57" fill="none" xmlns="http://www.w3.org/2000/svg">
<circle cx="28.0435" cy="28.5537" r="28.0469" fill="white"/>
<path d="M47.18 32.2636V32.2507C47.1584 29.4104 46.0149 26.6938 43.9986 24.6933C41.9823 22.6927 39.2569 21.5703 36.4166 21.5709H16.2464C16.324 20.8241 16.6761 20.1328 17.2345 19.6309C17.7928 19.1289 18.5176 18.8522 19.2684 18.8543H19.2781L29.5464 18.8929C30.0493 18.8942 30.5476 18.7963 31.0126 18.6048C31.4777 18.4133 31.9004 18.132 32.2567 17.7769C32.6129 17.4219 32.8956 17.0001 33.0887 16.5357C33.2817 16.0713 33.3813 15.5734 33.3817 15.0704C33.3817 14.9852 33.3479 14.9034 33.2876 14.8431C33.2273 14.7828 33.1455 14.7489 33.0602 14.7489C32.975 14.7489 32.8932 14.7828 32.8329 14.8431C32.7726 14.9034 32.7388 14.9852 32.7388 15.0704C32.7379 15.9134 32.4026 16.7216 31.8066 17.3177C31.2105 17.9138 30.4022 18.2491 29.5592 18.2499H29.5496L19.2813 18.2113C18.358 18.208 17.467 18.5513 16.7848 19.1735C16.1025 19.7956 15.6786 20.6512 15.597 21.5709H12.4497C11.6218 21.5709 10.8278 21.242 10.2423 20.6566C9.65692 20.0712 9.32803 19.2772 9.32803 18.4493C9.32803 17.6213 9.65692 16.8273 10.2423 16.2419C10.8278 15.6565 11.6218 15.3276 12.4497 15.3276H27.9004C28.1714 15.3276 28.4398 15.2742 28.6902 15.1705C28.9406 15.0668 29.1681 14.9147 29.3598 14.7231C29.5515 14.5314 29.7035 14.3039 29.8072 14.0535C29.9109 13.8031 29.9643 13.5347 29.9643 13.2637C29.9643 12.9926 29.9109 12.7242 29.8072 12.4738C29.7035 12.2234 29.5515 11.9959 29.3598 11.8042C29.1681 11.6126 28.9406 11.4605 28.6902 11.3568C28.4398 11.2531 28.1714 11.1997 27.9004 11.1997H26.1708C26.0855 11.1997 26.0037 11.2336 25.9434 11.2939C25.8831 11.3542 25.8493 11.4359 25.8493 11.5212C25.8493 11.6065 25.8831 11.6882 25.9434 11.7485C26.0037 11.8088 26.0855 11.8427 26.1708 11.8427H27.9004C28.2772 11.8427 28.6387 11.9924 28.9051 12.2589C29.1716 12.5254 29.3213 12.8868 29.3213 13.2637C29.3213 13.6405 29.1716 14.002 28.9051 14.2684C28.6387 14.5349 28.2772 14.6846 27.9004 14.6846H12.4497C11.4512 14.6846 10.4937 15.0813 9.78769 15.7873C9.08169 16.4933 8.68506 17.4508 8.68506 18.4493C8.68506 19.4477 9.08169 20.4052 9.78769 21.1112C10.4937 21.8172 11.4512 22.2139 12.4497 22.2139H15.5938C15.6759 25.013 16.8455 27.6699 18.8545 29.6207C20.8636 31.5714 23.5537 32.6625 26.354 32.6622H33.0506C33.0988 32.6622 33.1503 32.6622 33.2017 32.6654C33.6016 32.6834 33.9939 32.7807 34.3558 32.9516C34.6674 33.1021 34.952 33.303 35.1981 33.5463C35.2656 33.6202 35.3364 33.691 35.3942 33.7681C35.3988 33.7762 35.4042 33.7837 35.4103 33.7906C35.6807 34.1168 35.8781 34.4972 35.989 34.9062C35.989 34.9094 35.989 34.9094 35.9922 34.9126C36.0201 35.0162 36.0416 35.1214 36.0565 35.2277C36.0602 35.2402 36.0624 35.2532 36.0629 35.2663C36.0726 35.3177 36.0758 35.3659 36.0822 35.4174C36.0919 35.5138 36.0951 35.6103 36.0951 35.7067C36.0954 35.9175 36.0728 36.1277 36.0276 36.3336C36.0121 36.4162 35.9918 36.4978 35.9665 36.5779C35.9154 36.7508 35.8487 36.9187 35.7672 37.0795C35.7447 37.1245 35.7222 37.1663 35.6997 37.2048C35.5975 37.3869 35.4757 37.5572 35.3364 37.7128C35.2914 37.7674 35.2399 37.8189 35.1885 37.8703C35.1306 37.9282 35.0728 37.9796 35.0085 38.0343C35.0052 38.0375 34.9988 38.0407 34.9956 38.0439C34.9313 38.0986 34.8606 38.15 34.7898 38.2014H34.7866C34.7582 38.225 34.7281 38.2465 34.6966 38.2657C34.6934 38.2657 34.6902 38.269 34.687 38.2722C34.6838 38.2754 34.6838 38.2722 34.6805 38.2786C34.1929 38.5872 33.6277 38.751 33.0506 38.7512H26.3058L21.5735 34.0189C21.5137 33.9586 21.4324 33.9244 21.3475 33.9238C21.2626 33.9232 21.1809 33.9562 21.1202 34.0157C20.5097 34.6304 20.1285 35.4358 20.0402 36.2976C19.9518 37.1594 20.1617 38.0254 20.6348 38.7512H19.3231C19.2807 38.7508 19.2387 38.7588 19.1995 38.7748C19.1603 38.7908 19.1247 38.8145 19.0948 38.8444C19.0649 38.8743 19.0412 38.9099 19.0252 38.9491C19.0092 38.9883 19.0012 39.0303 19.0016 39.0727C19.0003 39.9209 19.2855 40.7447 19.8109 41.4106C20.3364 42.0764 21.0712 42.5454 21.8965 42.7415C22.7217 42.9376 23.589 42.8493 24.3577 42.4909C25.1265 42.1325 25.7518 41.525 26.1322 40.7669C26.5161 42.4058 27.4422 43.867 28.7603 44.9138C30.0784 45.9606 31.7114 46.5316 33.3946 46.5344H36.4166C37.8147 46.5368 39.1996 46.2648 40.493 45.7339L40.5123 45.7243C42.4892 44.9175 44.1802 43.5388 45.3686 41.765C46.5571 39.9912 47.1889 37.9029 47.1832 35.7678V32.3407C47.1838 32.315 47.1827 32.2892 47.18 32.2636ZM21.043 25.0333C20.7641 25.0336 20.4913 24.9512 20.2592 24.7964C20.0272 24.6416 19.8462 24.4215 19.7393 24.1638C19.6324 23.9062 19.6044 23.6226 19.6587 23.349C19.7131 23.0754 19.8474 22.824 20.0446 22.6268C20.2419 22.4295 20.4932 22.2952 20.7668 22.2409C21.0404 22.1865 21.324 22.2146 21.5817 22.3215C21.8393 22.4284 22.0595 22.6093 22.2142 22.8414C22.369 23.0735 22.4515 23.3462 22.4512 23.6252C22.4506 23.9985 22.302 24.3563 22.0381 24.6202C21.7741 24.8842 21.4163 25.0327 21.043 25.0333ZM33.6775 25.6184C33.8814 25.6185 34.0808 25.679 34.2503 25.7923C34.4199 25.9057 34.552 26.0667 34.63 26.2552C34.7081 26.4436 34.7285 26.6509 34.6887 26.8509C34.6489 27.0509 34.5507 27.2347 34.4066 27.3789C34.2624 27.5231 34.0787 27.6214 33.8787 27.6612C33.6786 27.7011 33.4713 27.6807 33.2829 27.6027C33.0944 27.5248 32.9333 27.3927 32.8199 27.2232C32.7066 27.0537 32.646 26.8543 32.6458 26.6504C32.6459 26.3769 32.7545 26.1146 32.9479 25.9211C33.1412 25.7276 33.4034 25.6188 33.6769 25.6184H33.6775ZM31.6978 28.4417C31.5515 28.4417 31.4086 28.3984 31.287 28.3171C31.1654 28.2359 31.0706 28.1204 31.0146 27.9853C30.9587 27.8502 30.944 27.7015 30.9726 27.5581C31.0011 27.4146 31.0715 27.2829 31.1749 27.1795C31.2783 27.076 31.4101 27.0056 31.5535 26.9771C31.697 26.9486 31.8456 26.9632 31.9807 27.0192C32.1159 27.0751 32.2313 27.1699 32.3126 27.2915C32.3938 27.4131 32.4372 27.5561 32.4372 27.7023C32.4366 27.8983 32.3585 28.0861 32.2199 28.2246C32.0812 28.3632 31.8938 28.4412 31.6978 28.4417ZM33.7624 30.9654C33.4848 30.9654 33.2134 30.8831 32.9826 30.7289C32.7517 30.5746 32.5718 30.3554 32.4656 30.0989C32.3594 29.8425 32.3316 29.5602 32.3857 29.288C32.4399 29.0157 32.5736 28.7656 32.7699 28.5693C32.9662 28.373 33.2163 28.2393 33.4885 28.1851C33.7608 28.131 34.043 28.1588 34.2995 28.265C34.556 28.3713 34.7752 28.5512 34.9294 28.782C35.0837 29.0128 35.166 29.2842 35.166 29.5618C35.1656 29.934 35.0175 30.2909 34.7542 30.5541C34.4909 30.8172 34.134 30.9651 33.7617 30.9654H33.7624ZM34.986 32.5658C34.872 32.4935 34.754 32.428 34.6323 32.3697C34.5552 32.3343 34.478 32.3021 34.4008 32.27C35.5423 30.8555 36.1873 29.1051 36.2367 27.2881C36.2861 25.4711 35.737 23.6883 34.6741 22.2139H35.4489C36.4587 23.7729 36.9568 25.6082 36.8738 27.4639C36.7908 29.3195 36.1309 31.1031 34.986 32.5658ZM40.2487 45.1359C40.0012 45.2388 39.7536 45.3288 39.4996 45.4092C38.2459 44.8022 37.152 43.9095 36.3061 42.8029C35.4602 41.6962 34.8858 40.4064 34.6291 39.0373C34.7721 38.969 34.9106 38.8917 35.0438 38.8058C35.1049 38.7673 35.1628 38.7287 35.2174 38.6869C35.4441 40.1091 36.0382 41.4474 36.941 42.5695C37.8437 43.6916 39.0238 44.5585 40.3644 45.0845C40.3259 45.1038 40.2873 45.1199 40.2487 45.1359ZM46.5402 33.1444C45.3134 34.4551 43.7211 35.3668 41.9697 35.7612C40.2184 36.1556 38.3889 36.0145 36.7188 35.3563C36.7156 35.292 36.7059 35.2245 36.6963 35.1602C36.687 35.0844 36.673 35.0092 36.6545 34.9351C36.6416 34.8708 36.6255 34.8033 36.6095 34.739C36.5966 34.6876 36.5805 34.6394 36.5645 34.5879C38.2575 35.361 40.1613 35.5419 41.9697 35.1017C43.778 34.6614 45.3856 33.6255 46.5338 32.1607C46.537 32.1961 46.537 32.2346 46.537 32.27C46.5365 32.2936 46.5375 32.3173 46.5402 32.3407V33.1444Z" fill="#75002A"/>
<path d="M21.0433 23.1045C20.9406 23.1042 20.8401 23.1343 20.7545 23.1911C20.669 23.2479 20.6022 23.3288 20.5626 23.4235C20.523 23.5183 20.5124 23.6226 20.5321 23.7234C20.5518 23.8242 20.601 23.9169 20.6734 23.9897C20.7458 24.0625 20.8381 24.1123 20.9388 24.1326C21.0394 24.1529 21.1439 24.143 21.2389 24.104C21.3339 24.065 21.4152 23.9987 21.4725 23.9135C21.5298 23.8283 21.5605 23.728 21.5609 23.6253C21.5609 23.4877 21.5064 23.3557 21.4095 23.2582C21.3125 23.1606 21.1808 23.1053 21.0433 23.1045Z" fill="#75002A"/>
</svg>
