<svg width="57" height="57" viewBox="0 0 57 57" fill="none" xmlns="http://www.w3.org/2000/svg">
<circle cx="28.0435" cy="28.2725" r="28.0469" fill="white"/>
<path d="M44.4325 31.3324H39.1478L39.136 31.3385C35.4872 33.2 28.5665 36.7175 28.1948 36.8571C27.8232 36.7174 20.9024 33.2 17.2537 31.3385L17.2419 31.3324H11.957C10.2199 31.3324 8.80664 32.7456 8.80664 34.4828V34.8619C8.80664 36.5991 10.2199 38.0123 11.957 38.0123H44.4325C46.1697 38.0123 47.5829 36.5991 47.5829 34.8619V34.4828C47.5829 32.7456 46.1698 31.3324 44.4325 31.3324Z" fill="#75002A"/>
<path d="M10.9849 40.8003C11.6785 43.0013 13.0866 44.9807 14.9499 46.3736C16.8777 47.8149 19.1644 48.5767 21.5624 48.5767H34.8273C37.2252 48.5767 39.5118 47.8148 41.4398 46.3736C43.303 44.9806 44.7112 43.0012 45.4047 40.8003L45.4274 40.7284H10.9622L10.9849 40.8003Z" fill="#75002A"/>
<path d="M45.7573 28.615C45.3254 26.0681 43.9947 23.7317 42.0105 22.0361C40.0036 20.321 37.4526 19.3766 34.8271 19.3766H29.8528V17.7994L36.2548 14.1033L26.5067 8.4751V19.3766H21.5623C18.9369 19.3766 16.3858 20.321 14.379 22.0361C12.3949 23.7317 11.0642 26.0681 10.6322 28.615L10.6213 28.6794H45.7681L45.7573 28.615Z" fill="#75002A"/>
</svg>
