<svg width="57" height="57" viewBox="0 0 57 57" fill="none" xmlns="http://www.w3.org/2000/svg">
<circle cx="28.0435" cy="28.46" r="28.0469" fill="white"/>
<path d="M42.9996 38.2544H13.8823C12.1921 38.2544 11.6006 39.6251 11.6006 41.3159V41.6211C11.6006 43.3125 12.9713 44.6827 14.6616 44.6827H42.2128C43.9031 44.6827 45.2738 43.3125 45.2738 41.6211V41.3159C45.2739 39.6251 44.691 38.2544 42.9996 38.2544Z" fill="#75002A"/>
<path d="M41.4799 36.61C43.0494 36.61 44.3217 35.5977 44.3217 34.3472V34.2814C44.3217 33.032 43.0495 32.0186 41.4799 32.0186H15.9075C14.3387 32.0186 13.0664 33.032 13.0664 34.2814V34.3472C13.0664 35.5977 14.3386 36.61 15.9075 36.61H41.4799Z" fill="#75002A"/>
<path d="M13.6777 25.0806H43.1958C44.3186 25.0806 44.9668 24.4679 44.9668 23.3044C44.9668 22.9077 44.9312 23.0881 44.8654 22.6957C43.959 17.2696 36.9513 12.4004 28.4376 12.4004C19.9228 12.4004 12.9151 17.2696 12.0087 22.6959H12.0081C11.9423 23.0881 11.9067 22.9078 11.9067 23.3046C11.9067 24.468 12.5549 25.0806 13.6777 25.0806ZM37.7609 17.2535C38.2116 17.2535 38.5774 17.6194 38.5774 18.07C38.5774 18.5206 38.2116 18.8865 37.7609 18.8865C37.3103 18.8865 36.9439 18.5206 36.9439 18.07C36.9439 17.6194 37.3103 17.2535 37.7609 17.2535ZM33.679 14.5905C34.1296 14.5905 34.4949 14.9563 34.4949 15.4064C34.4949 15.8582 34.1296 16.2241 33.679 16.2241C33.2278 16.2241 32.8625 15.8582 32.8625 15.4064C32.8625 14.9563 33.2278 14.5905 33.679 14.5905ZM31.0257 17.2535C31.4769 17.2535 31.8422 17.6194 31.8422 18.07C31.8422 18.5206 31.4769 18.8865 31.0257 18.8865C30.5751 18.8865 30.2093 18.5206 30.2093 18.07C30.2092 17.6194 30.5751 17.2535 31.0257 17.2535ZM27.9642 13.5805C28.4153 13.5805 28.7806 13.9458 28.7806 14.3964C28.7806 14.847 28.4153 15.2123 27.9642 15.2123C27.5135 15.2123 27.1477 14.847 27.1477 14.3964C27.1477 13.9457 27.5135 13.5805 27.9642 13.5805ZM25.5152 17.0491C25.9659 17.0491 26.3317 17.415 26.3317 17.8662C26.3317 18.3169 25.9659 18.6827 25.5152 18.6827C25.0645 18.6827 24.6987 18.3169 24.6987 17.8662C24.6987 17.415 25.0645 17.0491 25.5152 17.0491ZM22.6581 14.6002C23.1087 14.6002 23.4745 14.9655 23.4745 15.4167C23.4745 15.8678 23.1087 16.2332 22.6581 16.2332C22.2068 16.2332 21.8416 15.8678 21.8416 15.4167C21.8416 14.9655 22.2068 14.6002 22.6581 14.6002ZM19.392 17.0491C19.8432 17.0491 20.2091 17.415 20.2091 17.8662C20.2091 18.3169 19.8433 18.6827 19.392 18.6827C18.9414 18.6827 18.5761 18.3169 18.5761 17.8662C18.5761 17.415 18.9414 17.0491 19.392 17.0491Z" fill="#75002A"/>
<path d="M44.9046 26.8772C44.5451 26.8767 44.2044 26.9316 43.8963 27.0341C43.6266 27.1234 43.3844 27.2477 43.1737 27.3879C42.805 27.6335 42.5313 27.9192 42.304 28.177C42.1334 28.3699 41.9873 28.5503 41.8533 28.702C41.6535 28.9322 41.4835 29.0907 41.3312 29.1823C41.2539 29.227 41.1811 29.2608 41.0947 29.2854C41.0082 29.3095 40.9063 29.3255 40.7706 29.326C40.6131 29.3255 40.5015 29.3043 40.4058 29.2728C40.3223 29.2454 40.2484 29.2076 40.1688 29.1555C40.0314 29.0656 39.8774 28.919 39.701 28.7174C39.5682 28.5674 39.4233 28.3888 39.255 28.1953C39.0019 27.9089 38.6916 27.5814 38.2541 27.3164C38.0365 27.1841 37.788 27.0713 37.5143 26.994C37.2417 26.9172 36.9463 26.8766 36.6371 26.8772C36.2781 26.8766 35.9374 26.9315 35.6294 27.034C35.3596 27.1233 35.1175 27.2476 34.9068 27.3879C34.5375 27.6335 34.2644 27.9192 34.037 28.1769C33.8658 28.3698 33.7203 28.5502 33.5864 28.7019C33.386 28.9321 33.217 29.0907 33.0642 29.1823C32.9869 29.227 32.9142 29.2607 32.8277 29.2853C32.7418 29.3094 32.6399 29.3254 32.5042 29.326C32.3461 29.3254 32.235 29.3042 32.1394 29.2728C32.0553 29.2453 31.9815 29.2075 31.9019 29.1554C31.765 29.0655 31.6116 28.9189 31.4346 28.7174C31.3017 28.5673 31.1575 28.3887 30.9886 28.1964C30.7355 27.9089 30.4252 27.5814 29.9883 27.3163C29.7701 27.184 29.5222 27.0713 29.2485 26.9939C28.9759 26.9171 28.6799 26.8765 28.3714 26.8771C28.0124 26.8765 27.6716 26.9315 27.3642 27.034C27.0945 27.1232 26.8518 27.2475 26.641 27.3878C26.2717 27.6334 25.9986 27.9191 25.7707 28.1768C25.6006 28.3698 25.4552 28.5501 25.3212 28.7019C25.1208 28.932 24.9507 29.0906 24.7984 29.1822C24.7217 29.2269 24.649 29.2606 24.5625 29.2853C24.4749 29.3093 24.3741 29.3254 24.2385 29.3259C24.0804 29.3254 23.9694 29.3042 23.8732 29.2727C23.7901 29.2452 23.7157 29.2074 23.6373 29.1553C23.4993 29.0654 23.3465 28.9189 23.1689 28.7173C23.0361 28.5673 22.8918 28.3887 22.7229 28.1963C22.4704 27.9088 22.1595 27.5813 21.7226 27.3162C21.505 27.184 21.256 27.0712 20.9834 26.9939C20.7103 26.9171 20.4148 26.8765 20.1056 26.877C19.7466 26.8765 19.4066 26.9314 19.0979 27.0339C18.8282 27.1232 18.5866 27.2475 18.3759 27.3877C18.0066 27.6333 17.7335 27.919 17.5056 28.1768C17.3349 28.3697 17.1896 28.5501 17.0561 28.7018C16.8557 28.932 16.6856 29.0905 16.5339 29.1821C16.4566 29.2268 16.3833 29.2606 16.2968 29.2852C16.2104 29.3093 16.109 29.3253 15.9733 29.3258C15.8153 29.3253 15.7042 29.3041 15.6086 29.2726C15.525 29.2451 15.4512 29.2074 15.3721 29.1553C15.2347 29.0654 15.0807 28.9194 14.9043 28.7172C14.7715 28.5672 14.6271 28.3886 14.4583 28.1962C14.2052 27.9087 13.8949 27.5825 13.458 27.3162C13.2404 27.1839 12.9919 27.0711 12.7188 26.9938C12.4457 26.917 12.1503 26.8764 11.841 26.877C11.2777 26.8772 10.8208 27.3342 10.8208 27.8976C10.8208 28.461 11.2777 28.9179 11.8411 28.9179C11.9992 28.9179 12.1102 28.9397 12.2059 28.9712C12.2895 28.9992 12.3634 29.0358 12.4424 29.0886C12.5798 29.1791 12.7333 29.3244 12.9102 29.526C13.043 29.676 13.1873 29.8558 13.3562 30.0481C13.6093 30.335 13.9197 30.662 14.3565 30.9282C14.5741 31.0604 14.8232 31.1726 15.0957 31.2493C15.3683 31.3261 15.6643 31.3667 15.9735 31.3667C16.3319 31.3673 16.6726 31.3123 16.9807 31.2099C17.2503 31.12 17.4925 30.9963 17.7027 30.8566C18.0726 30.6104 18.3456 30.3242 18.5736 30.0676C18.7436 29.8735 18.8896 29.6937 19.0231 29.5414C19.2241 29.3118 19.3929 29.1532 19.5453 29.0622C19.6225 29.0164 19.6953 28.9832 19.7824 28.9586C19.8683 28.9346 19.9695 28.9179 20.1058 28.9179C20.2639 28.9179 20.3749 28.9397 20.4706 28.9712C20.5542 28.9992 20.6281 29.0358 20.7077 29.0886C20.8451 29.1791 20.9985 29.3244 21.1749 29.526C21.3077 29.676 21.4526 29.8558 21.6209 30.0481C21.8746 30.335 22.1843 30.662 22.6218 30.9282C22.8393 31.0604 23.0879 31.1726 23.3609 31.2493C23.6341 31.3261 23.9295 31.3667 24.2387 31.3667C24.5972 31.3673 24.9384 31.3123 25.2458 31.2099C25.5156 31.12 25.7578 30.9963 25.9685 30.8566C26.3377 30.6104 26.6109 30.3242 26.8382 30.0676C27.0094 29.8735 27.1549 29.6937 27.2888 29.5414C27.4892 29.3118 27.6587 29.1532 27.811 29.0622C27.8877 29.0164 27.961 28.9832 28.0475 28.9586C28.1339 28.9346 28.2353 28.9179 28.3716 28.9179C28.5296 28.9179 28.6401 28.9397 28.7358 28.9712C28.8199 28.9992 28.8938 29.0358 28.9728 29.0886C29.1102 29.1791 29.2637 29.3244 29.4406 29.526C29.574 29.676 29.7183 29.8558 29.8866 30.0481C30.1397 30.335 30.4501 30.662 30.8875 30.9282C31.1051 31.0604 31.3536 31.1726 31.6267 31.2493C31.8998 31.3261 32.1952 31.3667 32.5045 31.3667C32.8629 31.3673 33.2036 31.3123 33.5116 31.2099C33.7813 31.12 34.0235 30.9963 34.2342 30.8566C34.6035 30.6104 34.8772 30.3242 35.104 30.0676C35.2746 29.8735 35.4207 29.6937 35.554 29.5414C35.7544 29.3118 35.9244 29.1532 36.0773 29.0622C36.1529 29.0164 36.2268 28.9832 36.3132 28.9586C36.3997 28.9346 36.501 28.9179 36.6373 28.9179C36.7948 28.9179 36.9059 28.9397 37.002 28.9712C37.0856 28.9992 37.16 29.0358 37.2385 29.0886C37.3765 29.1791 37.5293 29.3244 37.7069 29.526C37.8397 29.676 37.9846 29.8558 38.1535 30.0481C38.406 30.3356 38.717 30.662 39.1538 30.9282C39.3714 31.0604 39.6199 31.1726 39.893 31.2493C40.1662 31.3266 40.4616 31.3673 40.7708 31.3673C41.1298 31.3673 41.4711 31.3124 41.7779 31.2099C42.0476 31.1206 42.2899 30.9963 42.5005 30.8566C42.8704 30.6104 43.1441 30.3242 43.3708 30.0676C43.5409 29.8741 43.6875 29.6943 43.8208 29.5414C44.0212 29.3118 44.1908 29.1532 44.3436 29.0622C44.4198 29.0164 44.4931 28.9832 44.5801 28.9592C44.6672 28.9346 44.7679 28.9179 44.9047 28.9179C45.4676 28.9179 45.9245 28.461 45.9245 27.8976C45.9244 27.3342 45.4675 26.8772 44.9046 26.8772Z" fill="#75002A"/>
</svg>
