<svg width="57" height="57" viewBox="0 0 57 57" fill="none" xmlns="http://www.w3.org/2000/svg">
<circle cx="28.0435" cy="28.3662" r="28.0469" fill="white"/>
<path d="M41.6587 16.2441C41.5011 16.2441 41.3447 16.2158 41.1972 16.1604C33.2977 13.2091 24.5989 13.2048 16.6965 16.1485C16.3667 16.2709 16.0018 16.2572 15.6821 16.1106C15.3624 15.964 15.114 15.6963 14.9916 15.3665C14.8692 15.0368 14.8828 14.6719 15.0294 14.3521C15.1761 14.0324 15.4437 13.784 15.7735 13.6616C24.2717 10.4978 33.6254 10.5029 42.1202 13.6759C42.4125 13.7834 42.6577 13.9904 42.8126 14.2607C42.9675 14.5309 43.0222 14.8471 42.9671 15.1537C42.912 15.4603 42.7506 15.7376 42.5114 15.9371C42.2721 16.1365 41.9702 16.2452 41.6587 16.2441ZM40.5922 18.4488C40.5922 18.4488 39.8485 18.1619 38.9255 17.8678C32.5506 15.8441 25.7116 15.8024 19.3125 17.7482C18.2843 18.0638 17.3039 18.4417 17.3039 18.4417C17.1657 18.4946 17.0395 18.5747 16.9328 18.6772C16.826 18.7798 16.741 18.9027 16.6826 19.0387C16.6241 19.1747 16.5936 19.321 16.5927 19.469C16.5918 19.617 16.6206 19.7636 16.6774 19.9003L28.4973 48.4756C28.7364 49.0519 29.1262 49.0519 29.3653 48.4756L41.2163 19.9123C41.2728 19.7759 41.3016 19.6295 41.3009 19.4818C41.3002 19.3342 41.2699 19.1881 41.212 19.0523C41.1541 18.9164 41.0697 18.7935 40.9637 18.6907C40.8576 18.5879 40.7321 18.5073 40.5946 18.4536L40.5922 18.4488ZM20.2188 22.5235C20.2188 21.8496 20.4187 21.1908 20.7931 20.6304C21.1675 20.07 21.6997 19.6333 22.3223 19.3754C22.945 19.1175 23.6301 19.05 24.2911 19.1815C24.9521 19.3129 25.5593 19.6375 26.0358 20.114C26.5124 20.5906 26.8369 21.1977 26.9684 21.8587C27.0999 22.5197 27.0324 23.2049 26.7745 23.8275C26.5166 24.4502 26.0798 24.9823 25.5194 25.3568C24.9591 25.7312 24.3003 25.931 23.6263 25.931C22.7226 25.931 21.8559 25.572 21.2169 24.933C20.5778 24.294 20.2188 23.4272 20.2188 22.5235ZM28.9755 39.1928C28.3016 39.1928 27.6428 38.993 27.0824 38.6186C26.5221 38.2441 26.0853 37.712 25.8274 37.0893C25.5695 36.4667 25.502 35.7815 25.6335 35.1205C25.765 34.4595 26.0895 33.8524 26.5661 33.3758C27.0426 32.8993 27.6498 32.5748 28.3108 32.4433C28.9718 32.3118 29.6569 32.3793 30.2795 32.6372C30.9022 32.8951 31.4344 33.3318 31.8088 33.8922C32.1832 34.4526 32.383 35.1114 32.383 35.7853C32.383 36.689 32.024 37.5558 31.385 38.1948C30.746 38.8338 29.8793 39.1928 28.9755 39.1928ZM32.9402 29.7355C32.2663 29.7355 31.6075 29.5356 31.0471 29.1612C30.4867 28.7868 30.05 28.2546 29.7921 27.632C29.5342 27.0093 29.4667 26.3242 29.5982 25.6632C29.7296 25.0022 30.0542 24.395 30.5307 23.9185C31.0073 23.4419 31.6144 23.1174 32.2754 22.9859C32.9364 22.8544 33.6216 22.9219 34.2442 23.1798C34.8668 23.4377 35.399 23.8745 35.7735 24.4349C36.1479 24.9952 36.3477 25.654 36.3477 26.328C36.3477 27.2317 35.9887 28.0984 35.3497 28.7374C34.7107 29.3765 33.8439 29.7355 32.9402 29.7355Z" fill="#75002A"/>
</svg>
