<svg width="57" height="57" viewBox="0 0 57 57" fill="none" xmlns="http://www.w3.org/2000/svg">
<circle cx="28.0435" cy="28.5537" r="28.0469" fill="white"/>
<path d="M44.4716 15.2236C40.7006 11.3853 35.1116 9.23047 29.1858 9.23047C23.2601 9.23047 17.671 11.3853 13.9001 15.2236C12.9573 16.1663 12.4186 17.5131 12.4186 18.9272V26.065H10.3985V22.9001C10.3985 22.4288 9.99444 22.0247 9.52307 22.0247H9.0517C8.58033 22.0247 8.17631 22.4288 8.17631 22.9001V26.065H7.50292C6.69487 26.065 6.02148 26.7384 6.02148 27.5465V28.2198C6.02148 29.0279 6.69487 29.7013 7.50292 29.7013H12.2839V32.5968C12.2839 34.0109 12.8226 35.3577 13.7654 36.3004C14.6408 37.1758 15.5835 37.9165 16.5936 38.5899V45.5931C16.5936 47.6806 18.277 49.2967 20.2972 49.2967H23.1927C24.3375 49.2967 25.3475 48.8253 26.0883 47.9499C26.7616 47.0745 27.7717 46.6032 28.9165 46.6032C30.0612 46.6032 31.0039 47.0745 31.7447 47.9499C32.4854 48.8253 33.4955 49.2967 34.6402 49.2967H37.8724C39.9599 49.2967 41.576 47.6132 41.576 45.5931V38.6573C42.5861 37.9839 43.5288 37.1758 44.4042 36.3678C45.347 35.425 45.8857 34.0783 45.8857 32.6642V18.9945C45.953 17.5804 45.4143 16.1663 44.4716 15.2236ZM33.3608 39.398C33.2934 39.398 33.1588 39.4653 33.0914 39.4653C32.6874 39.5326 32.3507 39.6 31.9467 39.6673C31.812 39.6673 31.7447 39.6673 31.61 39.7347C31.3406 39.802 31.0039 39.802 30.6673 39.802C30.5326 39.802 30.3979 39.802 30.3306 39.802C29.9265 39.802 29.5225 39.8693 29.1185 39.8693C28.7144 39.8693 28.3104 39.8693 27.9064 39.802C27.7717 39.802 27.637 39.802 27.5697 39.802C27.233 39.802 26.9637 39.7347 26.6943 39.7347C26.5596 39.7347 26.4923 39.7347 26.3576 39.6673C25.9536 39.6 25.6169 39.5326 25.2129 39.4653C25.1455 39.4653 25.1455 39.4653 25.0782 39.4653V35.223C26.3576 35.3577 27.7044 35.425 28.9838 35.425C30.4652 35.425 32.014 35.3577 33.4955 35.1557V39.398C33.4281 39.398 33.4281 39.398 33.3608 39.398ZM25.0109 33.5396V26.469H33.4281V33.4722C30.6673 33.8762 27.8391 33.8762 25.0109 33.5396ZM43.4615 24.8529H38.5458V19.1965C40.2966 19.7352 41.9801 20.4759 43.4615 21.3513V24.8529ZM33.4955 24.8529H25.0109V17.9844C27.7717 17.6477 30.6673 17.7151 33.4281 18.0518V24.8529H33.4955ZM19.9605 24.8529H14.8428V21.2167C16.3916 20.3413 18.1424 19.6005 19.9605 19.0618V24.8529ZM14.8428 26.469H19.9605V32.4621C18.1424 31.9234 16.3916 31.1827 14.8428 30.3073V26.469ZM38.5458 26.469H43.4615V30.1726C41.9801 31.048 40.2966 31.7888 38.5458 32.3275V26.469ZM43.4615 18.9945V19.4659C41.9127 18.6578 40.2966 17.9844 38.5458 17.5131V14.0115C40.0946 14.8195 41.5087 15.8296 42.7208 17.0417C43.1922 17.5131 43.4615 18.1864 43.4615 18.9945ZM33.4955 12.1933V16.4357C30.7346 16.099 27.8391 16.0316 25.0782 16.3683V12.126C26.425 11.8567 27.7717 11.722 29.1858 11.722C30.5999 11.722 32.0814 11.8567 33.4955 12.1933ZM15.5835 16.9744C16.8629 15.6949 18.3444 14.6849 19.9605 13.8095V17.311C18.1424 17.7824 16.3916 18.4558 14.8428 19.2639V18.9272C14.8428 18.1864 15.1121 17.5131 15.5835 16.9744ZM14.8428 32.5968V32.2601C16.4589 33.0682 18.1424 33.7416 19.9605 34.2129V37.6472C19.6238 37.5125 19.2871 37.3105 19.0178 37.1085C17.7383 36.3678 16.5936 35.4924 15.5835 34.4823C15.1121 34.0783 14.8428 33.3375 14.8428 32.5968ZM39.1519 40.0714V45.6604C39.1519 46.3338 38.6132 46.8725 37.9398 46.8725H34.6402C34.2362 46.8725 33.8995 46.7378 33.6975 46.4011C32.5527 44.987 30.8019 44.1116 28.9838 44.1116C27.1657 44.1116 25.4149 44.9197 24.2701 46.4011C24.0681 46.6705 23.6641 46.8725 23.3274 46.8725H20.4319C19.7585 46.8725 19.2198 46.3338 19.2198 45.6604V40.0714C19.2871 40.0714 19.3544 40.1387 19.4218 40.1387C19.6911 40.2734 19.9605 40.408 20.2298 40.4754C20.3645 40.5427 20.4319 40.5427 20.5665 40.6101C20.8359 40.6774 21.0379 40.8121 21.3073 40.8794C21.4419 40.9468 21.5766 40.9467 21.7113 41.0141C21.9806 41.1488 22.3173 41.2161 22.654 41.2834C22.7887 41.3508 22.9907 41.3508 23.1254 41.4181C23.3947 41.4855 23.6641 41.5528 23.9334 41.6201C24.1355 41.6875 24.2701 41.6875 24.4721 41.7548C24.6742 41.8221 24.8762 41.8221 25.1455 41.8895C25.3475 41.8895 25.4822 41.9568 25.6842 41.9568C25.8862 42.0242 26.1556 42.0242 26.3576 42.0242C26.5596 42.0242 26.6943 42.0915 26.8963 42.0915C27.1657 42.0915 27.435 42.1588 27.7044 42.1588C27.8391 42.1588 27.9737 42.1588 28.1084 42.1588C28.5124 42.1588 28.9165 42.1588 29.3205 42.1588C29.7245 42.1588 30.1286 42.1588 30.5326 42.1588C30.6673 42.1588 30.8019 42.1588 30.9366 42.1588C31.206 42.1588 31.4753 42.0915 31.7447 42.0915C31.9467 42.0915 32.0814 42.0242 32.2834 42.0242C32.4854 42.0242 32.7547 41.9568 32.9568 41.9568C33.1588 41.9568 33.2934 41.8895 33.4955 41.8895C33.6975 41.8221 33.9668 41.8221 34.1688 41.7548C34.3709 41.6875 34.5055 41.6875 34.7075 41.6201C34.9769 41.5528 35.2463 41.4855 35.5156 41.4181C35.6503 41.3508 35.8523 41.3508 35.987 41.2834C36.3237 41.2161 36.593 41.0814 36.9297 41.0141C37.0644 40.9467 37.1991 40.9468 37.3337 40.8794C37.6031 40.8121 37.8724 40.6774 38.0745 40.6101C38.2091 40.5427 38.2765 40.5427 38.4111 40.4754C38.6805 40.3407 38.9499 40.2734 39.2192 40.1387C39.0172 40.1387 39.0845 40.0714 39.1519 40.0714ZM42.6535 34.5496C41.6434 35.5597 40.4986 36.4351 39.2192 37.1758C38.9499 37.3105 38.7478 37.4452 38.4785 37.5798V34.0783C40.2293 33.5396 41.9127 32.9335 43.3942 32.1254V32.5968C43.4615 33.3375 43.1922 34.0783 42.6535 34.5496Z" fill="#75002A"/>
</svg>
