<svg width="57" height="57" viewBox="0 0 57 57" fill="none" xmlns="http://www.w3.org/2000/svg">
<circle cx="28.0435" cy="28.2725" r="28.0469" fill="white"/>
<path d="M18.7676 40.5826L24.6085 33.4999L27.2804 36.9078L22.1306 43.4567C20.1583 45.9628 16.5088 43.3218 18.7676 40.5826ZM25.5891 24.4534C26.1453 22.6385 25.8897 21.0876 23.7994 18.7839L18.6918 12.6396C17.9669 11.7883 16.2588 13.0385 16.9724 14.0696L21.0574 19.1013C21.83 20.0397 20.3943 21.2815 19.5964 20.315L15.371 15.1119C14.5843 14.2101 12.9576 15.4013 13.7808 16.4323C14.972 17.8652 16.8151 20.2055 18.0063 21.6383C18.8323 22.4783 17.5764 23.7229 16.7617 22.675L12.5671 17.5056C11.9519 16.8369 10.9461 17.2527 10.6792 18.0337C10.3926 18.8682 11.0978 19.4778 11.5782 20.0959L16.2588 26.1419C17.7113 27.8248 19.3352 28.8221 21.2231 28.2574C21.5125 28.1703 21.8665 27.9933 22.2458 27.7602L34.821 43.9933C35.4981 44.8671 36.8045 44.9598 37.6529 44.2546L37.8468 44.0944C38.802 43.2994 38.9565 41.8469 38.139 40.9085L24.8221 25.6081C25.2098 25.1754 25.4935 24.7653 25.5891 24.4534ZM29.1487 27.9933L31.2192 25.4817C28.5559 18.8794 38.4255 10.0801 43.2101 14.1258C49.0229 19.0452 40.3838 30.9011 34.3125 27.9709L31.8598 31.0866L29.1487 27.9933Z" fill="#75002A"/>
</svg>
