<svg width="57" height="57" viewBox="0 0 57 57" fill="none" xmlns="http://www.w3.org/2000/svg">
<circle cx="28.0435" cy="28.2725" r="28.0469" fill="white"/>
<path d="M35.5729 16.4714C35.5852 16.308 35.5929 16.1446 35.5929 15.9781C35.5929 12.0256 32.3773 8.81006 28.4249 8.81006C24.4725 8.81006 21.2569 12.0256 21.2569 15.9781C21.2569 16.1322 21.263 16.2848 21.2723 16.4375C18.456 17.404 16.4258 20.077 16.4258 23.217C16.4258 26.428 18.5484 29.1534 21.4634 30.0629L27.9671 48.2727C28.4295 48.2727 28.4172 48.2727 28.8796 48.2727L35.3972 30.0228C38.252 29.0794 40.3192 26.3864 40.3192 23.217C40.3192 20.1155 38.3368 17.4672 35.5729 16.4714ZM28.4249 10.6599C31.3569 10.6599 33.7431 13.0461 33.7431 15.9781C33.7431 16.0105 33.7416 16.0428 33.74 16.0752C33.5458 16.0598 33.35 16.049 33.1512 16.049C31.3152 16.049 29.6411 16.7442 28.3709 17.8818C27.1023 16.7442 25.4282 16.049 23.5938 16.049C23.4304 16.049 23.2685 16.0567 23.1082 16.0675C23.1082 16.0382 23.1067 16.0089 23.1067 15.9781C23.1067 13.0461 25.4914 10.6599 28.4249 10.6599ZM27.1639 27.1525C26.219 28.0111 24.9673 28.5352 23.5938 28.5352C20.6619 28.5352 18.2756 26.1505 18.2756 23.217C18.2756 20.2851 20.6619 17.8988 23.5938 17.8988C24.9673 17.8988 26.219 18.4245 27.1639 19.2831C26.4179 20.413 25.9831 21.7649 25.9831 23.217C25.9831 24.6707 26.4194 26.0226 27.1639 27.1525ZM33.1512 28.5352C33.1512 28.5352 33.0761 28.5343 33.0722 28.5343C32.734 28.5343 32.46 28.8079 32.4586 29.1457L32.4575 31.9327C32.4575 32.443 32.0428 32.8576 31.5326 32.8576C31.0223 32.8576 30.6077 32.443 30.6077 31.9327V27.8862C28.9567 26.9829 27.833 25.2287 27.833 23.217C27.833 20.2851 30.2192 17.8988 33.1512 17.8988C36.0831 17.8988 38.4694 20.2851 38.4694 23.217C38.4694 26.1505 36.0831 28.5352 33.1512 28.5352Z" fill="#75002A"/>
</svg>
