<svg width="282" height="59" viewBox="0 0 282 59" fill="none" xmlns="http://www.w3.org/2000/svg">
<g clip-path="url(#clip0_4_248)">
<path d="M108.341 21.0436C105.417 21.0436 101.47 21.0917 100.638 21.0917C100.543 21.0917 96.3353 20.8993 96.3353 25.2046V35.8357C96.3353 37.3269 97.0248 38.746 98.2135 39.66C101.066 41.8487 101.78 42.6665 103.705 42.6665H112.834C113.215 42.6665 113.5 42.3538 113.5 41.9931V38.9144C113.5 38.5295 113.191 38.2409 112.834 38.2409H101.78C101.185 38.2409 100.71 37.7599 100.71 37.1586V35.1863C100.71 34.585 101.185 34.1039 101.78 34.1039H111.004C111.004 34.1039 115.307 34.2964 115.307 29.991V25.3008C115.307 20.3461 110.219 21.0917 108.389 21.0917L108.341 21.0436ZM110.956 28.5238C110.956 29.1251 110.481 29.6062 109.886 29.6062H101.756C101.161 29.6062 100.686 29.1251 100.686 28.5238V26.6237C100.686 26.0224 101.161 25.5414 101.756 25.5414H109.886C110.481 25.5414 110.956 26.0224 110.956 26.6237V28.5238Z" fill="#75002A"/>
<path d="M154.891 21.0436C151.966 21.0436 148.02 21.0917 147.188 21.0917C147.093 21.0917 142.885 20.8993 142.885 25.2046V35.8357C142.885 38.746 144.977 39.8283 147.354 41.6563C148.186 42.3057 149.209 42.6424 150.255 42.6424H159.384C159.764 42.6424 160.05 42.3298 160.05 41.969V38.8903C160.05 38.5055 159.74 38.2168 159.384 38.2168H148.329C147.735 38.2168 147.259 37.7358 147.259 37.1345V35.1622C147.259 34.5609 147.735 34.0799 148.329 34.0799H157.553C157.553 34.0799 161.856 34.2723 161.856 29.9669V25.2768C161.856 20.3461 156.84 21.0676 154.938 21.0676L154.891 21.0436ZM157.506 28.5238C157.506 29.1251 157.03 29.6062 156.436 29.6062H148.305C147.711 29.6062 147.235 29.1251 147.235 28.5238V26.6237C147.235 26.0224 147.711 25.5413 148.305 25.5413H156.436C157.03 25.5413 157.506 26.0224 157.506 26.6237V28.5238Z" fill="#75002A"/>
<path d="M210.046 24.0982L207.455 22.0778C206.623 21.4284 205.6 21.0917 204.554 21.0917H195.425C195.045 21.0917 194.759 21.4044 194.759 21.7652V24.8438C194.759 25.2287 195.069 25.5173 195.425 25.5173H206.48C207.074 25.5173 207.55 25.9984 207.55 26.5997V28.5719C207.55 29.1732 207.074 29.6543 206.48 29.6543H197.256C196.019 29.6543 194.973 29.991 194.165 30.6645C193.357 31.3379 192.953 32.3722 192.953 33.7672V38.4574C192.953 39.6119 193.262 40.574 193.88 41.3196C194.498 42.0652 195.473 42.4981 196.78 42.6184H207.597C208.834 42.6184 209.88 42.2817 210.688 41.6082C211.496 40.9348 211.9 39.9005 211.9 38.5055V27.8744C211.9 26.3832 211.211 24.9641 210.022 24.0501L210.046 24.0982ZM207.55 37.1345C207.55 37.7358 207.074 38.2169 206.48 38.2169H198.349C197.755 38.2169 197.279 37.7358 197.279 37.1345V35.2344C197.279 34.6331 197.755 34.152 198.349 34.152H206.48C207.074 34.152 207.55 34.6331 207.55 35.2344V37.1345Z" fill="#75002A"/>
<path d="M138.249 13.4912H135.253C134.873 13.4912 134.588 13.8039 134.588 14.1647V17.8687C134.588 19.6245 133.185 21.0676 131.426 21.0676H124.484C123.247 21.0676 122.201 21.4044 121.369 22.0778C120.537 22.7513 120.133 23.7855 120.133 25.1806V38.5055C120.133 39.7321 120.49 40.7423 121.179 41.512C121.892 42.2817 122.986 42.6665 124.484 42.6665H134.564C135.8 42.6665 136.846 42.3057 137.678 41.6082C138.51 40.8866 138.914 39.8284 138.914 38.4333V14.1647C138.914 13.7798 138.605 13.4912 138.249 13.4912ZM134.564 37.1345C134.564 37.7358 134.088 38.2169 133.494 38.2169H125.554C124.959 38.2169 124.484 37.7358 124.484 37.1345V26.5997C124.484 25.9983 124.959 25.5173 125.554 25.5173H133.494C134.088 25.5173 134.564 25.9983 134.564 26.5997V37.1345Z" fill="#75002A"/>
<path d="M68.187 42.6665H71.1825C71.5629 42.6665 71.8482 42.3538 71.8482 41.993V38.289C71.8482 36.5332 73.2509 35.0901 75.0101 35.0901H88.2522C89.4885 35.0901 90.5345 34.7533 91.3666 34.0799C92.1987 33.4064 92.6028 32.3722 92.6028 30.9771V17.6522C92.6028 16.4256 92.2462 15.4154 91.5568 14.6457C90.8436 13.876 89.75 13.4912 88.2522 13.4912H71.872C70.6357 13.4912 69.5897 13.852 68.7576 14.5495C67.9255 15.2711 67.5214 16.3294 67.5214 17.7244V41.969C67.5214 42.3538 67.8304 42.6425 68.187 42.6425V42.6665ZM71.872 19.0232C71.872 18.4219 72.3475 17.9409 72.9418 17.9409H87.1824C87.7767 17.9409 88.2522 18.4219 88.2522 19.0232V29.5581C88.2522 30.1594 87.7767 30.6404 87.1824 30.6404H72.9418C72.3475 30.6404 71.872 30.1594 71.872 29.5581V19.0232Z" fill="#75002A"/>
<path d="M219.318 20.9714H217.107C216.516 20.9714 216.037 21.456 216.037 22.0538V41.5841C216.037 42.1819 216.516 42.6665 217.107 42.6665H219.318C219.909 42.6665 220.388 42.1819 220.388 41.5841V22.0538C220.388 21.456 219.909 20.9714 219.318 20.9714Z" fill="#75002A"/>
<path d="M242.592 30.9531C241.927 30.1113 240.881 29.7024 239.502 29.7024H230.705C230.111 29.7024 229.636 29.2213 229.636 28.62V26.5997C229.636 25.9984 230.111 25.5173 230.705 25.5173H242.331C242.711 25.5173 242.997 25.2046 242.997 24.8438V21.7652C242.997 21.3803 242.688 21.0917 242.331 21.0917H229.374C227.995 21.0917 226.949 21.5006 226.284 22.3424C225.618 23.1842 225.261 24.2425 225.261 25.5414V27.7542C225.261 29.0289 225.76 30.2315 226.64 31.1455C227.52 32.0354 227.33 31.843 228.209 32.757C229.113 33.671 230.325 34.1761 231.585 34.1761H238.194C238.789 34.1761 239.264 34.6571 239.264 35.2584V37.1586C239.264 37.7599 238.789 38.2409 238.194 38.2409H226.497C226.117 38.2409 225.832 38.5536 225.832 38.9144V41.993C225.832 42.3779 226.141 42.6665 226.497 42.6665H239.478C240.857 42.6665 241.879 42.2336 242.569 41.3917C243.258 40.5499 243.591 39.4916 243.591 38.2169V34.152C243.591 32.8532 243.258 31.7949 242.569 30.9531H242.592Z" fill="#75002A"/>
<path d="M188.863 15.68H183.895C182.944 15.68 182.064 16.2332 181.66 17.099C181.256 17.9649 178.546 23.6412 178.141 24.4831C177.761 25.3008 176.596 25.3008 176.192 24.4831C175.812 23.6653 173.101 17.989 172.673 17.099C172.269 16.2332 171.39 15.68 170.439 15.68H169.868H166.563C165.969 15.68 165.494 16.161 165.494 16.7623V41.969C165.494 42.3538 165.803 42.6425 166.159 42.6425H169.155C169.535 42.6425 169.821 42.3298 169.821 41.969V25.854C169.821 24.6755 171.413 24.3387 171.889 25.4211C172.364 26.5034 172.816 27.5617 173.22 28.4757C173.624 29.4138 174.528 30.0151 175.55 30.0151H178.759C179.758 30.0151 180.685 29.4138 181.089 28.4757C181.493 27.5377 183.039 24.002 183.514 22.9197C183.99 21.8373 185.583 22.1741 185.583 23.3526V41.969C185.583 42.3538 185.892 42.6425 186.248 42.6425H189.244C189.624 42.6425 189.909 42.3298 189.909 41.969V16.7623C189.909 16.161 189.434 15.68 188.84 15.68H188.863Z" fill="#75002A"/>
<path d="M216.037 17.7003C216.037 18.3017 216.513 18.7827 217.107 18.7827H219.294C219.888 18.7827 220.364 18.3017 220.364 17.7003V16.4015C220.364 15.8002 219.888 15.3192 219.294 15.3192H217.107C216.513 15.3192 216.037 15.8002 216.037 16.4015" fill="#75002A"/>
<path opacity="0.13" d="M34.0001 59.1182C44.0183 59.1182 52.1396 58.1706 52.1396 57.0016C52.1396 55.8327 44.0183 54.885 34.0001 54.885C23.9819 54.885 15.8606 55.8327 15.8606 57.0016C15.8606 58.1706 23.9819 59.1182 34.0001 59.1182Z" fill="black"/>
<path d="M48.0029 3.53363H19.0938C15.6703 3.53363 12.8888 6.32368 12.8888 9.7872V39.0346C12.8888 42.4982 15.6466 45.3123 19.07 45.3123H21.804C22.755 45.3123 23.6821 45.6971 24.3716 46.3946L27.8664 49.9303C29.269 51.3734 37.685 51.3734 39.1114 49.9303L42.6062 46.3946C43.2956 45.6971 44.199 45.3123 45.1738 45.3123H48.0029C51.4263 45.3123 54.2079 42.4982 54.2079 39.0346V9.81125C54.2079 6.34774 51.4501 3.53363 48.0266 3.53363H48.0029Z" fill="url(#paint0_linear_4_248)"/>
<path d="M54.2079 3.53363H29.9823C26.3687 3.53363 23.3494 8.10355 23.3494 11.5671V38.2169C23.3494 41.6804 26.44 43.6046 29.7683 44.4464C33.0967 45.2882 31.694 44.735 32.3121 45.4325L35.0699 49.9303C36.3537 51.3734 38.422 51.3734 39.7058 49.9303L42.8677 46.3946C43.4859 45.6971 44.318 45.3123 45.1738 45.3123H52.615C56.514 45.2642 58.8438 42.7627 60.0087 37.2307C61.1737 31.6987 61.7918 16.137 60.722 9.81125C60.0563 5.81859 57.2985 3.53363 54.2079 3.53363Z" fill="url(#paint1_linear_4_248)"/>
<path d="M53.4708 37.2307H35.1174C32.1932 37.2307 29.792 34.9458 29.6018 32.0114C29.2452 26.2629 28.7222 17.8206 28.7222 17.7725C29.1501 7.5744 43.1292 13.9001 44.722 14.2128C51.9731 15.6319 52.0919 11.2784 56.4663 12.0962C58.083 12.4089 58.5822 13.4191 59.1052 14.4533C60.5317 17.2434 59.9849 25.9984 59.3192 33.19C59.0339 36.2205 56.4901 37.2548 53.4708 37.2548V37.2307Z" fill="white"/>
<path d="M46.3861 32.1317C47.6937 32.3963 49.0726 31.6987 50.3088 30.0151C50.7605 29.3897 50.4277 28.4757 49.6669 28.3314L44.0087 27.2491C43.2004 27.1048 42.5823 27.9707 42.9627 28.7163C43.9374 30.7367 45.1261 31.8671 46.4099 32.1317H46.3861Z" fill="black"/>
<path d="M35.9256 16.7623C34.309 16.4256 32.9539 17.4839 32.6686 18.6865C32.6211 18.8789 32.5973 19.0473 32.5973 19.2397V21.3082L35.4739 22.8475L32.6924 24.6514L32.7399 26.9364C32.7399 28.0669 33.6196 28.9808 34.7607 29.1973C36.3773 29.534 37.7325 28.4757 38.0177 27.2731C38.0653 27.0807 38.0891 26.9124 38.0891 26.6959L37.9702 19.0232C37.9702 17.8928 37.0906 16.9788 35.9494 16.7623H35.9256Z" fill="black"/>
<path d="M56.2523 17.2194C54.9923 16.9307 53.97 17.8447 53.7322 18.879C53.7085 19.0473 53.6847 19.1916 53.6847 19.36V21.1639L55.8957 22.4868L53.756 24.0502V26.0225C53.8036 27.0086 54.4692 27.8023 55.3489 27.9947C56.6089 28.2834 57.6312 27.3694 57.8689 26.3351C57.8927 26.1668 57.9164 26.0225 57.9164 25.8541L57.8214 19.1916C57.8214 18.2055 57.1557 17.4118 56.2523 17.2194Z" fill="black"/>
<path d="M35.6643 7.18958C35.6643 7.18958 35.4741 7.04526 35.3552 7.02121C35.3077 7.02121 35.2601 7.02121 35.1888 7.02121L29.7684 7.59846C29.5782 7.59846 29.388 7.74278 29.2691 7.95925L28.1755 9.85937C28.1755 9.85937 28.0804 10.0758 28.0566 10.172C27.9853 10.605 28.1993 11.0139 28.5559 11.086C28.6034 11.086 28.651 11.086 28.7223 11.086L36.8054 10.2923C37.1383 10.2683 37.3522 9.95558 37.4236 9.61885C37.4711 9.35427 37.4236 9.0897 37.2334 8.87323L35.6881 7.18958H35.6643Z" fill="url(#paint2_linear_4_248)"/>
<path d="M59.985 10.3164C59.9137 10.172 59.2718 8.87322 59.2005 8.72891C59.1291 8.58459 59.0103 8.48839 58.8914 8.46433C58.8914 8.46433 58.8676 8.46433 58.8439 8.46433C58.8439 8.46433 55.4204 8.24786 55.254 8.22381C55.0876 8.19976 54.9449 8.29597 54.8261 8.46433C54.7072 8.6327 53.8989 9.7872 53.8276 9.88341C53.7562 9.97962 53.7087 10.0999 53.6849 10.2201C53.6374 10.5809 53.78 10.9417 54.0653 10.9898C54.0653 10.9898 54.0891 10.9898 54.1128 10.9898C54.1366 10.9898 59.1767 11.3506 59.462 11.3746C59.7473 11.3746 59.9612 11.1101 60.0325 10.7974C60.0563 10.629 60.0325 10.4607 59.9612 10.2923L59.985 10.3164Z" fill="url(#paint3_linear_4_248)"/>
<path opacity="0.24" d="M18.1428 32.9976L21.8991 35.9319L30.529 35.7636C30.529 35.7636 31.9079 37.4713 33.9049 37.4713C34.3329 37.4713 37.0193 37.808 37.4235 36.7016C37.6374 36.1003 37.4235 34.7534 37.4235 34.7534L22.7312 34.2002L18.9987 32.1798L18.1428 32.9735V32.9976Z" fill="black"/>
<path d="M37.7802 3.96654L41.2036 7.14143C41.5127 7.43006 41.9169 7.59842 42.3448 7.59842H47.7177C48.2645 7.59842 48.7637 7.33385 49.0728 6.90091L50.6894 4.66406C51.2362 3.91844 51.0698 2.8842 50.3566 2.30694L48.0505 0.478977C47.7415 0.238455 47.3849 0.118195 47.0045 0.118195L30.2676 0.238455C29.9348 0.238455 29.602 0.358716 29.3167 0.551134L25.1562 3.50955H36.6628C37.0908 3.50955 37.4949 3.67792 37.804 3.96654H37.7802Z" fill="#FF9A15"/>
<path d="M20.5201 29.534V17.0269L15.0759 10.7733L9.60791 17.0269V29.534L14.4102 35.0419C14.7668 35.4508 15.385 35.4508 15.7178 35.0419L20.5201 29.534Z" fill="#FF9A15"/>
<path d="M37.3046 3.5096L39.254 2.06647C39.5393 1.85 39.8959 1.72974 40.2525 1.72974H48.5972H49.667L51.664 3.29313L49.0964 6.85285C48.7874 7.28579 48.2643 7.55036 47.7413 7.55036H42.3684C41.9405 7.55036 41.5363 7.382 41.2273 7.09337L37.3283 3.48555L37.3046 3.5096Z" fill="#FFBC00"/>
<path d="M37.1382 31.7228H33.0491C32.6421 31.7228 32.3121 32.0566 32.3121 32.4684V35.2825C32.3121 35.6943 32.6421 36.0281 33.0491 36.0281H37.1382C37.5453 36.0281 37.8752 35.6943 37.8752 35.2825V32.4684C37.8752 32.0566 37.5453 31.7228 37.1382 31.7228Z" fill="#FBB03B"/>
<path d="M14.6005 10.2682L7.58725 1.68159C7.20686 1.20055 6.63629 0.935974 6.01817 0.935974H1.00187C-0.0204048 0.935974 -0.400787 1.92211 0.19356 2.49937C2.0717 4.37544 9.39406 13.1785 9.39406 13.1785C9.67935 13.5393 9.82199 13.9963 9.82199 14.4533V19.0232C9.82199 19.5764 10.036 20.0815 10.4163 20.4663L13.1979 23.2805L15.0523 21.4044V11.567C15.0523 11.086 14.9096 10.629 14.6005 10.2682Z" fill="#FF9A15"/>
<path d="M15.0524 27.4655V19.0954C15.0524 18.7346 14.9335 18.3978 14.6958 18.1333L11.9855 15.0305C11.415 14.3811 10.4165 14.3811 9.86966 15.0305L7.13566 18.1333C6.89792 18.3978 6.77905 18.7346 6.77905 19.0713V27.4415C6.77905 27.8023 6.89792 28.139 7.13566 28.4036L9.84589 31.5063C10.4165 32.1557 11.415 32.1557 11.9618 31.5063L14.6958 28.4036C14.9335 28.139 15.0524 27.8023 15.0524 27.4655Z" fill="#FFBC00"/>
<path d="M16.4312 35.5951C16.3123 35.5951 16.1934 35.547 16.0983 35.4749C15.8844 35.2825 15.8606 34.9457 16.0508 34.7293L19.8546 30.2556C20.3301 29.7024 20.5441 28.9808 20.5441 28.0668V18.6624C20.5441 17.8446 20.2588 17.0509 19.7357 16.4256L13.7447 9.25801C13.5545 9.04154 13.5783 8.70481 13.816 8.51239C14.03 8.31997 14.3628 8.36807 14.553 8.58454L20.5441 15.7521C21.2335 16.5699 21.5901 17.6041 21.5901 18.6624V28.0668C21.5901 29.2454 21.281 30.1834 20.6391 30.929L16.8353 35.4027C16.7402 35.523 16.5976 35.5951 16.4312 35.5951Z" fill="#8E004E"/>
<path d="M32.3122 34.7293H23.0166C22.1608 34.7293 21.3287 34.3685 20.7106 33.7672L17.0018 30.5923C16.7879 30.3999 16.7641 30.0631 16.9305 29.8467C17.1207 29.6302 17.4535 29.6062 17.6675 29.7745L21.4238 32.9735C21.8755 33.4305 22.446 33.671 23.0166 33.671H32.3122C32.5975 33.671 32.8352 33.9115 32.8352 34.2001C32.8352 34.4887 32.5975 34.7293 32.3122 34.7293Z" fill="black"/>
<path d="M10.9156 30.1353C10.9156 30.1353 10.7729 30.1112 10.7254 30.0631C10.6303 29.9669 10.6303 29.7985 10.7254 29.7023L13.4356 26.9604V19.1675L11.1295 16.9066C11.0344 16.8104 11.0344 16.642 11.1295 16.5458C11.2246 16.4496 11.391 16.4496 11.4861 16.5458L13.9586 18.9751V27.2009L11.1058 30.0872C11.0582 30.1353 10.9869 30.1593 10.9156 30.1593V30.1353Z" fill="white"/>
<path d="M47.7651 6.90087H43.0578L42.9865 6.82871L39.2303 3.72598C39.2303 3.72598 39.1114 3.46141 39.1827 3.3652C39.2778 3.24494 39.4442 3.24494 39.5393 3.31709L43.2243 6.37172H47.5036L50.0474 3.22088C50.1425 3.10062 50.3089 3.10062 50.404 3.17278C50.5229 3.26899 50.5229 3.43735 50.4515 3.53356L47.7413 6.87681L47.7651 6.90087Z" fill="white"/>
<path d="M36.734 31.7228H33.4532C33.1775 31.7228 32.954 31.9489 32.954 32.2279V34.1521C32.954 34.431 33.1775 34.6572 33.4532 34.6572H36.734C37.0098 34.6572 37.2333 34.431 37.2333 34.1521V32.2279C37.2333 31.9489 37.0098 31.7228 36.734 31.7228Z" fill="#FFBC00"/>
<path d="M6.87392 1.87401C7.08788 2.13858 19.5692 17.2433 19.5692 17.2433L16.859 18.0611L3.37915 1.63348L6.87392 1.87401Z" fill="#FFBC00"/>
<path d="M17.1682 18.9511L17.1444 26.6237L19.5693 28.4758V18.5663L17.1682 18.9511Z" fill="#FFBC00"/>
<path d="M248.573 37.1492L247.671 38.0615C246.877 38.865 246.877 40.1676 247.671 40.9711L248.646 41.9573C249.44 42.7608 250.728 42.7608 251.522 41.9573L252.424 41.045C253.218 40.2416 253.218 38.9389 252.424 38.1355L251.449 37.1492C250.655 36.3458 249.367 36.3458 248.573 37.1492Z" fill="#FF9A15"/>
<path d="M270.803 18.7827H259.225C257.204 18.7827 255.564 20.4423 255.564 22.4868V42.426C255.564 42.7627 255.825 43.0273 256.158 43.0273H258.845C259.177 43.0273 259.439 42.7627 259.439 42.426V38.1207C259.439 37.2788 260.105 36.6054 260.937 36.6054H268.948C269.852 36.6054 270.589 37.351 270.589 38.265V42.426C270.589 42.7627 270.85 43.0273 271.183 43.0273H273.87C274.202 43.0273 274.464 42.7627 274.464 42.426V22.4868C274.464 20.4423 272.824 18.7827 270.803 18.7827ZM270.589 31.3861C270.589 32.0836 270.018 32.6608 269.329 32.6608H260.699C260.009 32.6608 259.439 32.0836 259.439 31.3861V24.0501C259.439 23.3526 260.009 22.7754 260.699 22.7754H269.329C270.018 22.7754 270.589 23.3526 270.589 24.0501V31.3861Z" fill="#FF9A15"/>
<path d="M280.455 25.5173H277.412C277.215 25.5173 277.055 25.6788 277.055 25.8781V42.45C277.055 42.6493 277.215 42.8108 277.412 42.8108H280.455C280.652 42.8108 280.812 42.6493 280.812 42.45V25.8781C280.812 25.6788 280.652 25.5173 280.455 25.5173Z" fill="#FF9A15"/>
<path d="M280.455 19.3359H277.388C277.198 19.3359 277.032 19.6967 277.032 19.7448V22.3906C277.032 22.3906 277.174 22.7754 277.388 22.7754H280.455C280.645 22.7754 280.812 22.4387 280.812 22.3906V19.7448C280.812 19.7448 280.645 19.3359 280.455 19.3359Z" fill="#FF9A15"/>
</g>
<defs>
<linearGradient id="paint0_linear_4_248" x1="19.0163" y1="30.7191" x2="58.0985" y2="14.8788" gradientUnits="userSpaceOnUse">
<stop stop-color="#A8145A"/>
<stop offset="1" stop-color="#ED1C24"/>
</linearGradient>
<linearGradient id="paint1_linear_4_248" x1="23.3456" y1="27.2586" x2="61.265" y2="27.2848" gradientUnits="userSpaceOnUse">
<stop stop-color="#D4145A"/>
<stop offset="1" stop-color="#F15A24"/>
</linearGradient>
<linearGradient id="paint2_linear_4_248" x1="28.4067" y1="8.27832" x2="37.3464" y2="9.89689" gradientUnits="userSpaceOnUse">
<stop stop-color="#A8145A"/>
<stop offset="1" stop-color="#C01747"/>
</linearGradient>
<linearGradient id="paint3_linear_4_248" x1="53.8824" y1="9.25575" x2="60.1309" y2="10.3871" gradientUnits="userSpaceOnUse">
<stop stop-color="#A8145A"/>
<stop offset="1" stop-color="#C01747"/>
</linearGradient>
<clipPath id="clip0_4_248">
<rect width="282" height="59" fill="white"/>
</clipPath>
</defs>
</svg>
