<svg width="400" height="313" viewBox="0 0 400 313" fill="none" xmlns="http://www.w3.org/2000/svg">
<path d="M322.432 90.3786V92.3786L323.359 92.3786L323.958 91.6717L322.432 90.3786ZM210.158 90.3794L210.158 88.3794L209.289 88.3794L208.696 89.0149L210.158 90.3794ZM398.358 0.786904L382.083 2.13069L383.427 18.4052L399.701 17.0615L398.358 0.786904ZM5.6258 312.49L211.621 91.744L208.696 89.0149L2.70135 309.761L5.6258 312.49ZM210.158 92.3794L322.432 92.3786V88.3786L210.158 88.3794L210.158 92.3794ZM323.958 91.6717L392.418 10.8891L389.366 8.30303L320.907 89.0856L323.958 91.6717Z" fill="url(#paint0_linear_187_288)"/>
<path d="M89.669 150.623L89.6691 152.623L90.5957 152.623L91.1948 151.916L89.669 150.623ZM47.2239 150.624L47.2239 148.624L46.3955 148.624L45.8097 149.21L47.2239 150.624ZM165.594 61.0314L149.32 62.3752L150.663 78.6497L166.938 77.306L165.594 61.0314ZM3.45474 197.222L48.6382 152.038L45.8097 149.21L0.626314 194.393L3.45474 197.222ZM47.224 152.624L89.6691 152.623L89.669 148.623L47.2239 148.624L47.224 152.624ZM91.1948 151.916L159.655 71.1336L156.603 68.5475L88.1432 149.33L91.1948 151.916Z" fill="#FAF9F9"/>
<defs>
<linearGradient id="paint0_linear_187_288" x1="-15.4483" y1="336.706" x2="371.673" y2="19.5053" gradientUnits="userSpaceOnUse">
<stop stop-color="white"/>
<stop offset="1" stop-color="#FFBC00"/>
</linearGradient>
</defs>
</svg>
